<svg width="155" height="154" viewBox="0 0 155 154" fill="none" xmlns="http://www.w3.org/2000/svg">
<path d="M84.4929 53.1503C81.4798 53.1503 79.4585 54.3966 77.5 56.3983C75.5414 54.3966 73.5201 53.1503 70.507 53.1503C64.5686 53.1503 59.7477 57.9971 59.7477 63.939C59.7477 66.3938 60.6767 68.7102 62.1456 70.6992C62.3214 70.9384 63.3132 71.9456 63.6647 72.2351L74.8258 82.495C75.554 83.1623 76.483 83.5147 77.4246 83.5147C77.4372 83.5147 77.4497 83.5147 77.5 83.5147C77.5502 83.5147 77.5627 83.5147 77.5753 83.5147C78.5169 83.5147 79.4585 83.1623 80.1741 82.495L91.3352 72.2351C91.6867 71.9456 92.666 70.9384 92.8543 70.6992C94.3232 68.7102 95.2523 66.3938 95.2523 63.939C95.2523 57.9971 90.4313 53.1503 84.4929 53.1503Z" fill="#FF4D4D"/>
<path d="M155 38.2073V27.1668C155 23.9567 152.79 21.0864 149.614 20.1926L78.7931 0.163656C78.4039 0.0503556 78.0022 0 77.6004 0H77.4121C77.0104 0 76.6086 0.0503556 76.2194 0.163656L5.38596 20.1926C2.20962 21.0864 0 23.9567 0 27.1668V38.2073C0 42.2106 3.3521 45.4711 7.47003 45.4711H9.62944C9.42856 46.3146 9.30301 47.1832 9.30301 48.1022V79.5493C9.30301 90.3757 13.898 100.963 21.9205 108.604L26.2016 112.671C29.4407 115.755 31.236 119.821 31.2737 124.152H7.06828C3.16378 124.152 0 127.337 0 131.239V146.912C0 150.828 3.17633 154 7.06828 154H147.919C151.824 154 154.987 150.815 154.987 146.912V131.239C154.987 127.324 151.811 124.152 147.919 124.152H123.739C123.789 119.834 125.572 115.755 128.811 112.671L133.092 108.592C141.102 100.963 145.697 90.3757 145.697 79.5367V48.1022C145.697 47.1958 145.584 46.3146 145.371 45.4711H147.53C151.648 45.4711 155 42.2106 155 38.2073ZM32.2404 106.275L27.9593 102.209C21.594 96.1414 18.0787 88.0971 18.0787 79.5493V48.1022C18.0787 46.3775 19.7736 45.4711 21.4434 45.4711H22.7867C24.4565 45.4711 26.1514 46.3775 26.1514 48.1022V76.6538C26.1514 86.4606 30.8719 92.4151 35.9817 97.3751C37.7268 99.0746 40.5014 99.0243 42.1963 97.287C43.8911 95.5372 43.8409 92.755 42.0958 91.0555C36.8103 85.9192 34.9397 82.1426 34.9397 76.6538V70.737C34.9397 68.5591 35.9943 66.2302 38.932 66.2302C41.8698 66.2302 42.9244 68.5591 42.9244 70.737C42.9244 80.2165 47.2935 85.1387 53.0058 90.5771L57.3246 94.6937C61.1162 98.2941 63.2002 103.078 63.2002 108.139V124.152H40.062C40.0117 117.48 37.1744 110.971 32.2404 106.275ZM83.0115 108.126V124.139H71.9885V108.126C71.9885 100.724 68.8498 93.4977 63.3886 88.2859L59.0697 84.1694C53.5582 78.9198 51.7253 76.2384 51.7253 70.7244C51.7253 63.1333 46.2263 57.4054 38.9446 57.4054C37.5385 57.4054 36.1951 57.6194 34.9522 58.0222V48.1022C34.9522 47.1958 34.8392 46.3146 34.6258 45.4711H120.399C120.198 46.3146 120.073 47.1832 120.073 48.1022V58.0222C118.83 57.6194 117.487 57.4054 116.081 57.4054C108.799 57.4054 103.3 63.1333 103.3 70.7244C103.3 76.251 101.467 78.9198 95.9554 84.1694L91.624 88.2859C86.1502 93.4977 83.0115 100.736 83.0115 108.126ZM146.212 145.188H8.78827V132.964H35.6678H67.5944H87.4056H119.332H146.212V145.188ZM136.909 48.1022V79.5493C136.909 88.0971 133.406 96.1414 127.028 102.209L122.747 106.288C117.813 110.984 114.976 117.492 114.925 124.152H91.7998V108.126C91.7998 103.053 93.8839 98.2815 97.6628 94.6811L101.994 90.5645C107.707 85.1261 112.076 80.2039 112.076 70.7244C112.076 68.5466 113.13 66.2176 116.068 66.2176C119.006 66.2176 120.06 68.5466 120.06 70.7244V76.6412C120.06 82.13 118.19 85.8941 112.904 91.0429C111.159 92.7424 111.121 95.5246 112.804 97.2744C114.499 99.0243 117.273 99.062 119.018 97.3751C124.128 92.4151 128.849 86.4606 128.849 76.6538V48.1022C128.849 46.3775 130.544 45.4711 132.213 45.4711H133.557C135.226 45.4711 136.909 46.3775 136.909 48.1022ZM146.212 36.6589H133.557H132.213H22.7867H21.4434H8.78827V28.3754L77.5 8.9633L146.212 28.388V36.6589Z" fill="#3569A5"/>
</svg>
