<svg width="498" height="498" viewBox="0 0 498 498" fill="none" xmlns="http://www.w3.org/2000/svg">
    <path d="M249 497.3C182.7 497.3 120.3 471.5 73.4 424.6C26.5 377.7 0.700012 315.3 0.700012 249C0.700012 182.7 26.5 120.3 73.4 73.4C120.3 26.5 182.7 0.699997 249 0.699997C315.3 0.699997 377.7 26.5 424.6 73.4C471.5 120.3 497.3 182.7 497.3 249C497.3 315.3 471.5 377.7 424.6 424.6C377.7 471.5 315.3 497.3 249 497.3Z" fill="#FFCC2F"/>
    <path d="M249 490.7C382.487 490.7 490.7 382.487 490.7 249C490.7 115.513 382.487 7.3 249 7.3C115.513 7.3 7.30002 115.513 7.30002 249C7.30002 382.487 115.513 490.7 249 490.7Z" fill="#FFCC2F"/>
    <path d="M249 484.8C186 484.8 126.8 460.3 82.3 415.7C37.7 371.2 13.2 312 13.2 249C13.2 186 37.7 126.8 82.3 82.3C126.8 37.8 186 13.2 249 13.2C312 13.2 371.2 37.7 415.7 82.3C460.2 126.8 484.8 186 484.8 249C484.8 312 460.3 371.2 415.7 415.7C371.1 460.2 312 484.8 249 484.8ZM249 20.2C122.8 20.2 20.2 122.8 20.2 249C20.2 375.2 122.8 477.8 249 477.8C375.2 477.8 477.8 375.2 477.8 249C477.8 122.8 375.2 20.2 249 20.2Z" fill="#393E7B"/>
    <path d="M406.3 91.7C364.3 49.7 308.4 26.5 249 26.5C189.6 26.5 133.7 49.6 91.7 91.7C49.7 133.7 26.5 189.6 26.5 249C26.5 308.4 49.6 364.3 91.7 406.3C133.7 448.3 189.6 471.5 249 471.5C308.4 471.5 364.3 448.4 406.3 406.3C448.3 364.2 471.5 308.4 471.5 249C471.5 189.6 448.4 133.7 406.3 91.7Z" fill="#393E7B"/>
    <path d="M238.3 324.1H210.2C207.6 324.1 205.4 322 205.4 319.3V299.4C205.4 296.2 208 293.6 211.2 293.6H238.3C240.9 293.6 243.1 295.7 243.1 298.4V319.3C243 321.9 240.9 324.1 238.3 324.1ZM211.1 296.7C209.6 296.7 208.3 297.9 208.3 299.5V319.4C208.3 320.4 209.1 321.2 210.1 321.2H238.2C239.2 321.2 240 320.4 240 319.4V298.5C240 297.5 239.2 296.7 238.2 296.7H211.1Z" fill="#FFCC2F" stroke="#FFCC2F" stroke-miterlimit="10" stroke-linecap="round" stroke-linejoin="round"/>
    <path d="M220.4 296.7C219.6 296.7 218.9 296 218.9 295.2V289C218.9 288.2 219.6 287.5 220.4 287.5C221.2 287.5 221.9 288.2 221.9 289V295.2C221.9 296 221.2 296.7 220.4 296.7Z" fill="#FFCC2F" stroke="#FFCC2F" stroke-miterlimit="10" stroke-linecap="round" stroke-linejoin="round"/>
    <path d="M212.9 296.7C212.1 296.7 211.4 296 211.4 295.2V289C211.4 288.2 212.1 287.5 212.9 287.5C213.7 287.5 214.4 288.2 214.4 289V295.2C214.4 296 213.7 296.7 212.9 296.7Z" fill="#FFCC2F" stroke="#FFCC2F" stroke-miterlimit="10" stroke-linecap="round" stroke-linejoin="round"/>
    <path d="M228 296.7C227.2 296.7 226.5 296 226.5 295.2V289C226.5 288.2 227.2 287.5 228 287.5C228.8 287.5 229.5 288.2 229.5 289V295.2C229.5 296 228.8 296.7 228 296.7Z" fill="#FFCC2F" stroke="#FFCC2F" stroke-miterlimit="10" stroke-linecap="round" stroke-linejoin="round"/>
    <path d="M235.5 296.7C234.7 296.7 234 296 234 295.2V289C234 288.2 234.7 287.5 235.5 287.5C236.3 287.5 237 288.2 237 289V295.2C237 296 236.4 296.7 235.5 296.7Z" fill="#FFCC2F" stroke="#FFCC2F" stroke-miterlimit="10" stroke-linecap="round" stroke-linejoin="round"/>
    <path d="M228 296.7C227.2 296.7 226.5 296 226.5 295.2V289C226.5 288.2 227.2 287.5 228 287.5C228.8 287.5 229.5 288.2 229.5 289V295.2C229.5 296 228.8 296.7 228 296.7Z" fill="#FFCC2F" stroke="#FFCC2F" stroke-miterlimit="10" stroke-linecap="round" stroke-linejoin="round"/>
    <path d="M220.4 330.3C219.6 330.3 218.9 329.6 218.9 328.8V323.5C218.9 322.7 219.6 322 220.4 322C221.2 322 221.9 322.7 221.9 323.5V328.8C221.9 329.6 221.2 330.3 220.4 330.3Z" fill="#FFCC2F" stroke="#FFCC2F" stroke-miterlimit="10" stroke-linecap="round" stroke-linejoin="round"/>
    <path d="M212.9 330.3C212.1 330.3 211.4 329.6 211.4 328.8V323.5C211.4 322.7 212.1 322 212.9 322C213.7 322 214.4 322.7 214.4 323.5V328.8C214.4 329.6 213.7 330.3 212.9 330.3Z" fill="#FFCC2F" stroke="#FFCC2F" stroke-miterlimit="10" stroke-linecap="round" stroke-linejoin="round"/>
    <path d="M228 330.3C227.2 330.3 226.5 329.6 226.5 328.8V323.5C226.5 322.7 227.2 322 228 322C228.8 322 229.5 322.7 229.5 323.5V328.8C229.5 329.6 228.8 330.3 228 330.3Z" fill="#FFCC2F" stroke="#FFCC2F" stroke-miterlimit="10" stroke-linecap="round" stroke-linejoin="round"/>
    <path d="M235.5 330.3C234.7 330.3 234 329.6 234 328.8V323.5C234 322.7 234.7 322 235.5 322C236.3 322 237 322.7 237 323.5V328.8C237 329.6 236.4 330.3 235.5 330.3Z" fill="#FFCC2F" stroke="#FFCC2F" stroke-miterlimit="10" stroke-linecap="round" stroke-linejoin="round"/>
    <path d="M228 330.3C227.2 330.3 226.5 329.6 226.5 328.8V323.5C226.5 322.7 227.2 322 228 322C228.8 322 229.5 322.7 229.5 323.5V328.8C229.5 329.6 228.8 330.3 228 330.3Z" fill="#FFCC2F" stroke="#FFCC2F" stroke-miterlimit="10" stroke-linecap="round" stroke-linejoin="round"/>
    <path d="M280.9 243.3V257.2H272.1V243.3H280.9ZM282.7 240.3H270.3C269.6 240.3 269.1 240.8 269.1 241.5V259C269.1 259.7 269.6 260.2 270.3 260.2H282.7C283.4 260.2 283.9 259.7 283.9 259V241.5C283.9 240.8 283.3 240.3 282.7 240.3Z" fill="#FFCC2F"/>
    <path d="M287.2 276.1H265.7C263 276.1 260.8 273.9 260.8 271.2V237.5C260.8 234.8 263 232.6 265.7 232.6H287.2C289.9 232.6 292.1 234.8 292.1 237.5V271.2C292.1 273.9 289.9 276.1 287.2 276.1ZM265.7 235.6C264.6 235.6 263.8 236.5 263.8 237.5V271.2C263.8 272.3 264.7 273.1 265.7 273.1H287.2C288.3 273.1 289.1 272.2 289.1 271.2V237.5C289.1 236.4 288.2 235.6 287.2 235.6H265.7Z" fill="#FFCC2F" stroke="#FFCC2F" stroke-miterlimit="10" stroke-linecap="round" stroke-linejoin="round"/>
    <path d="M276.4 269.5C277.946 269.5 279.2 268.246 279.2 266.7C279.2 265.154 277.946 263.9 276.4 263.9C274.854 263.9 273.6 265.154 273.6 266.7C273.6 268.246 274.854 269.5 276.4 269.5Z" fill="#FFCC2F"/>
    <path d="M276.4 307.8C267 307.8 259.9 304.2 259.9 299.5C259.9 294.8 267 291.2 276.4 291.2C285.8 291.2 292.9 294.8 292.9 299.5C292.9 304.2 285.8 307.8 276.4 307.8ZM276.4 294.2C268.7 294.2 262.9 297 262.9 299.5C262.9 302 268.7 304.8 276.4 304.8C284.1 304.8 289.9 302 289.9 299.5C289.9 297 284.1 294.2 276.4 294.2Z" fill="#FFCC2F" stroke="#FFCC2F" stroke-miterlimit="10" stroke-linecap="round" stroke-linejoin="round"/>
    <path d="M276.4 329.1C267 329.1 259.9 325.5 259.9 320.8V300.2C259.9 299.4 260.6 298.7 261.4 298.7C262.2 298.7 262.9 299.4 262.9 300.2V320.8C262.9 323.3 268.7 326.1 276.4 326.1C284.1 326.1 289.9 323.3 289.9 320.8V300.2C289.9 299.4 290.6 298.7 291.4 298.7C292.2 298.7 292.9 299.4 292.9 300.2V320.8C292.9 325.6 285.8 329.1 276.4 329.1Z" fill="#FFCC2F" stroke="#FFCC2F" stroke-miterlimit="10" stroke-linecap="round" stroke-linejoin="round"/>
    <path d="M276.4 315.6C268.7 315.6 262.9 312.8 262.9 310.3H259.9C259.9 315 267 318.6 276.4 318.6C285.8 318.6 292.9 315 292.9 310.3H289.9C289.9 312.8 284.1 315.6 276.4 315.6Z" fill="#FFCC2F" stroke="#FFCC2F" stroke-miterlimit="10" stroke-linecap="round" stroke-linejoin="round"/>
    <path d="M224.6 273.2C213.4 273.2 204.3 264.1 204.3 252.9C204.3 241.7 213.4 232.6 224.6 232.6C235.8 232.6 244.9 241.7 244.9 252.9C244.9 264.1 235.8 273.2 224.6 273.2ZM224.6 235C214.8 235 206.8 243 206.8 252.8C206.8 262.6 214.8 270.6 224.6 270.6C234.4 270.6 242.4 262.6 242.4 252.8C242.4 243 234.4 235 224.6 235Z" fill="#FFCC2F" stroke="#FFCC2F" stroke-miterlimit="10" stroke-linecap="round" stroke-linejoin="round"/>
    <path d="M235.2 265.7C234.5 265.7 233.9 265.4 233.4 265L230 261.7L227.8 263.8C227.3 264.3 226.7 264.5 226 264.5C225.8 264.5 225.6 264.5 225.4 264.4C224.5 264.2 223.8 263.6 223.5 262.8L218.8 250.6C218.6 250 218.6 249.4 218.8 248.8C219 248.2 219.4 247.7 220 247.4C220.2 247.3 220.4 247.2 220.7 247.1C220.9 247 221.1 247 221.3 247C221.5 247 221.8 247 222 247.1C222.1 247.1 222.2 247.1 222.2 247.2L234.9 251.7C235.8 252 236.4 252.7 236.6 253.6C236.8 254.5 236.5 255.4 235.9 256L233.8 258L237.1 261.2C238.1 262.2 238.2 263.9 237.2 264.9C236.8 265.3 236.2 265.6 235.6 265.7C235.4 265.7 235.3 265.7 235.2 265.7Z" fill="#FFCC2F"/>
    <path d="M163.2 128.9C164.8 130.5 165.6 132.6 165.6 134.8V162.3C165.6 163.6 165.1 164.8 164.2 165.8L143.4 186.6C141.7 188.3 140.8 190.5 140.8 192.9V212.7C140.8 216.5 143.9 219.6 147.7 219.6H155.9C156.8 222.2 159.2 224.1 162 224.1C165.6 224.1 168.5 221.2 168.5 217.6C168.5 214 165.6 211.1 162 211.1C159.2 211.1 156.7 212.9 155.9 215.6H147.7C146.1 215.6 144.8 214.3 144.8 212.7V192.9C144.8 191.6 145.3 190.4 146.2 189.4L167 168.6C168.7 166.9 169.6 164.7 169.6 162.3V134.8C169.6 131.5 168.3 128.4 166 126.1L109.2 69.3C109 69.1 108.7 69.1 108.5 69.3L106.4 71.4C106.2 71.6 106.2 71.9 106.4 72.1L163.2 128.9Z" fill="#FFCC2F"/>
    <path d="M93.3 212.8C93.9 211.4 93.6 209.8 92.5 208.7L74.4 190.6C73.7 189.9 72.7 189.5 71.7 189.5H57.8L39.9 171.6C39.7 171.4 39.4 171.4 39.2 171.6L37.1 173.7C36.9 173.9 36.9 174.2 37.1 174.4L55.1 192.4C55.8 193.1 56.8 193.5 57.8 193.5H71.7L89.3 211.1H50L31.2 192.3C31 192.1 30.7 192.1 30.5 192.3L28.4 194.4C28.2 194.6 28.2 194.9 28.4 195.1L47.3 214C48 214.7 49 215.1 50 215.1H89.9C91.3 215.1 92.7 214.2 93.3 212.8Z" fill="#FFCC2F"/>
    <path d="M137.7 134.8C139 136.1 139.7 137.9 139.7 139.7V155.7C139.7 157.6 139 159.3 137.7 160.6L123.1 175.2C121 177.3 119.9 180 119.9 182.9V210.6C117.5 211.6 115.9 213.9 115.9 216.5C115.9 220.1 118.8 223 122.4 223C126 223 128.9 220.1 128.9 216.5C128.9 213.5 126.9 210.9 124 210.2V183C124 181.1 124.7 179.4 126 178.1L140.6 163.5C142.7 161.4 143.8 158.7 143.8 155.8V139.8C143.8 136.9 142.7 134.1 140.6 132.1L95.6 87.1C95.4 86.9 95.1 86.9 94.9 87.1L92.8 89.2C92.7 89.3 92.7 89.4 92.7 89.6C92.7 89.8 92.8 89.9 92.8 90L137.7 134.8Z" fill="#FFCC2F"/>
    <path d="M82.9 148.6C83.1 148.8 83.3 149.2 83.3 149.5V173.4C83.3 174.8 83.8 176.1 84.8 177.1L94.8 187.1C94.3 188 94.1 189 94.1 190C94.1 193.6 97 196.5 100.6 196.5C104.2 196.5 107.1 193.6 107.1 190C107.1 186.4 104.2 183.5 100.6 183.5C99.6 183.5 98.6 183.7 97.7 184.2L87.7 174.2C87.5 174 87.3 173.6 87.3 173.3V149.4C87.3 148 86.8 146.7 85.8 145.7L63.6 123.5C63.4 123.3 63.1 123.3 62.9 123.5L60.8 125.6C60.6 125.8 60.6 126.1 60.8 126.3L82.9 148.6Z" fill="#FFCC2F"/>
    <path d="M58.8 160.3C58.3 161.2 58.1 162.2 58.1 163.2C58.1 166.8 61 169.7 64.6 169.7C68.2 169.7 71.1 166.8 71.1 163.2C71.1 159.6 68.2 156.7 64.6 156.7C63.6 156.7 62.6 156.9 61.7 157.4L51 146.7C50.8 146.5 50.5 146.5 50.3 146.7L48.2 148.8C48 149 48 149.3 48.2 149.5L58.8 160.3Z" fill="#FFCC2F"/>
    <path d="M108.1 139.4C107.4 140.5 107 141.7 107 142.9C107 146.5 109.9 149.4 113.5 149.4C117.1 149.4 120 146.5 120 142.9C120 139.3 117.1 136.4 113.5 136.4C112.7 136.4 112 136.5 111.3 136.8L78.5 104C78.3 103.8 78 103.8 77.8 104L75.7 106.1C75.5 106.3 75.5 106.6 75.7 106.8L108.1 139.4Z" fill="#FFCC2F"/>
    <path d="M327.8 134.7V162.2C327.8 164.6 328.7 166.8 330.4 168.5L351.2 189.3C352.1 190.2 352.6 191.5 352.6 192.8V212.6C352.6 214.2 351.3 215.5 349.7 215.5H341.5C340.6 212.9 338.2 211 335.4 211C331.8 211 328.9 213.9 328.9 217.5C328.9 221.1 331.8 224 335.4 224C338.2 224 340.7 222.2 341.5 219.5H349.7C353.5 219.5 356.6 216.4 356.6 212.6V192.8C356.6 190.4 355.7 188.2 354 186.5L333.2 165.7C332.3 164.8 331.8 163.5 331.8 162.2V134.7C331.8 132.5 332.7 130.4 334.2 128.8L391 72C391.2 71.8 391.2 71.5 391 71.3L388.9 69.2C388.7 69 388.4 69 388.2 69.2L331.4 126C329.1 128.4 327.8 131.5 327.8 134.7Z" fill="#FFCC2F"/>
    <path d="M469 194.4L466.9 192.3C466.7 192.1 466.4 192.1 466.2 192.3L447.4 211.1H408.1L425.7 193.5H439.6C440.6 193.5 441.6 193.1 442.3 192.4L460.3 174.4C460.5 174.2 460.5 173.9 460.3 173.7L458.2 171.6C458 171.4 457.7 171.4 457.5 171.6L439.6 189.5H425.7C424.7 189.5 423.7 189.9 423 190.6L404.9 208.7C403.8 209.8 403.5 211.4 404.1 212.8C404.7 214.2 406.1 215.1 407.6 215.1H447.5C448.5 215.1 449.5 214.7 450.2 214L469.1 195.1C469.2 194.9 469.2 194.6 469 194.4Z" fill="#FFCC2F"/>
    <path d="M353.7 139.7V155.7C353.7 158.6 354.8 161.4 356.9 163.4L371.5 178C372.8 179.3 373.5 181.1 373.5 182.9V210.3C370.6 211 368.6 213.6 368.6 216.6C368.6 220.2 371.5 223.1 375.1 223.1C378.7 223.1 381.6 220.2 381.6 216.6C381.6 214 380 211.6 377.6 210.7V183C377.6 180.1 376.5 177.3 374.4 175.3L359.8 160.7C358.5 159.4 357.8 157.6 357.8 155.8V139.8C357.8 137.9 358.5 136.2 359.8 134.9L404.8 89.9C405 89.7 405 89.4 404.8 89.2L402.7 87.1C402.5 86.9 402.2 86.9 402 87.1L357 132.1C354.8 134 353.7 136.8 353.7 139.7Z" fill="#FFCC2F"/>
    <path d="M431.2 222.6C428.4 222.6 425.9 224.4 425.1 227.1H409.3C408.3 227.1 407.3 227.5 406.6 228.2L394.8 240C393.7 241.1 393.4 242.7 394 244.1C394.6 245.5 396 246.4 397.5 246.4H413.1L400.6 259H345.6C342.4 259 339.3 260.3 337.1 262.5L327.9 271.7C326.4 273.2 324.4 274.1 322.2 274.1H309.1V247.1H342.5C342.6 247.1 342.8 247 342.9 247L350.5 239.4H368.9C369.8 242 372.2 243.9 375 243.9C378.6 243.9 381.5 241 381.5 237.4C381.5 233.8 378.6 230.9 375 230.9C372.2 230.9 369.7 232.7 368.9 235.4H349C348.9 235.4 348.7 235.5 348.6 235.5L341 243H309V242C309 237.5 310.8 233.2 313.9 230.1L318.3 225.7C320 224 320.5 221.5 319.6 219.3C318.7 217.1 316.6 215.7 314.2 215.7H278.9V158.6C278.9 153.5 274.7 149.3 269.6 149.3H227.7C222.6 149.3 218.4 153.5 218.4 158.6C218.4 159.3 218.3 159.6 218.2 159.6C217.8 160 216 159.9 214.8 159.9C214.3 159.9 213.7 159.9 213.1 159.9H198.1C193 159.9 188.8 164.1 188.8 169.2V185.6L188.6 192.1C188.5 194.4 189.9 196.6 192 197.5C194.2 198.4 196.6 197.9 198.3 196.3L204.5 190.1H218.3V215.8H183.6C181.2 215.8 179.1 217.2 178.2 219.4C177.3 221.6 177.8 224.1 179.5 225.8L183.9 230.2C187.1 233.4 188.8 237.6 188.8 242.1V243.2H156.2L148.6 235.6C148.5 235.5 148.4 235.5 148.2 235.5H128.3C127.4 232.9 125 231 122.2 231C118.6 231 115.7 233.9 115.7 237.5C115.7 241.1 118.6 244 122.2 244C125 244 127.5 242.2 128.3 239.5H146.7L154.3 247.1C154.4 247.2 154.5 247.2 154.7 247.2H188.7V274.2H175C172.8 274.2 170.8 273.4 169.3 271.8L160.1 262.6C157.8 260.3 154.8 259.1 151.6 259.1H96.6L84.1 246.6H99.7C101.2 246.6 102.6 245.7 103.2 244.3C103.8 242.9 103.5 241.3 102.4 240.2L90.6 228.4C89.9 227.7 88.9 227.3 87.9 227.3H72.1C71.2 224.7 68.8 222.8 66 222.8C62.4 222.8 59.5 225.7 59.5 229.3C59.5 232.9 62.4 235.8 66 235.8C68.8 235.8 71.3 234 72.1 231.3H88L99.4 242.7H83.8C82.3 242.7 80.9 243.6 80.3 245C79.7 246.4 80 248 81.1 249.1L94.1 262.1C94.8 262.8 95.8 263.2 96.8 263.2H151.9C154.1 263.2 156.1 264 157.6 265.6L166.8 274.8C169.1 277.1 172.1 278.3 175.3 278.3H189V305.8H147C145.4 305.8 143.9 305.2 142.7 304L131.3 292.6H157C158.5 292.6 159.9 291.7 160.5 290.3C161.1 288.9 160.8 287.3 159.7 286.2L150.6 277.1C149.9 276.4 148.9 276 147.9 276H121C120.1 273.4 117.7 271.5 114.9 271.5C111.3 271.5 108.4 274.4 108.4 278C108.4 281.6 111.3 284.5 114.9 284.5C117.7 284.5 120.2 282.7 121 280H147.6L156.3 288.7H130.6C129.1 288.7 127.7 289.6 127.1 291C126.5 292.4 126.8 294 127.9 295.1L139.7 306.9C141.6 308.8 144.1 309.8 146.8 309.8H184.7L170.3 324C168.7 325.6 167.8 327.7 167.8 330V344.3C167.8 346 167.1 347.6 165.9 348.7L154.7 359.5L140.7 345.5C140 344.8 139.1 344.4 138.2 344.4H99.2C98.3 344.4 97.3 344.8 96.7 345.5L86.3 355.9C85.2 357 84.9 358.6 85.5 360C86.1 361.4 87.5 362.3 89 362.3H121.3L125.6 366.6H111.3C110.3 366.6 109.3 367 108.7 367.8L99 378.2C98 379.3 97.7 380.9 98.3 382.3C98.9 383.7 100.2 384.6 101.8 384.6H140.2L145.2 389.6H127C126.9 389.6 126.7 389.6 126.7 389.7L113.6 402.2C112.5 403.3 112.1 404.9 112.7 406.3C113.3 407.7 114.7 408.7 116.2 408.7H163.4V418.1L156.3 425.2C155.2 426.3 154.9 427.9 155.5 429.3C156.1 430.7 157.5 431.6 159 431.6H178C178.9 431.6 179.9 431.2 180.5 430.5L187.9 423.1C188.6 422.4 189 421.5 189 420.6V396.2C189 395.3 188.6 394.3 187.9 393.7L176.6 382.4L189.8 369.2H202.6C203.6 369.2 204.5 368.8 205.2 368.1L213.5 359.7V370.8L202.8 381.5C202.1 382.2 201.7 383.2 201.7 384.2V405.6C201.7 407.1 202.6 408.5 204 409.1C205.4 409.7 207 409.4 208.1 408.3L216.1 400.3V424C216.1 425 216.5 425.9 217.1 426.6L228.5 440L228.6 440.1C229.7 441.2 231.3 441.5 232.7 440.9C234.1 440.3 235 438.9 235 437.4V424.2L246 435.1C246.7 435.8 247.7 436.2 248.8 436.2C249.9 436.2 250.8 435.8 251.6 435L262 424.2V437.4C262 438.9 262.9 440.3 264.3 440.9C264.8 441.1 265.3 441.2 265.8 441.2C266.8 441.2 267.8 440.8 268.5 440.1L279.9 426.7C280.6 426 281 425 281 424.1V400.4L289 408.4C290.1 409.5 291.7 409.8 293.1 409.2C294.5 408.6 295.4 407.2 295.4 405.7V384.3C295.4 383.3 295 382.3 294.3 381.6L283.6 370.9V359.8L291.9 368.2C292.6 368.9 293.5 369.3 294.5 369.3H307.4L320.6 382.5L309.3 393.8C308.6 394.5 308.2 395.4 308.2 396.3V420.7C308.2 421.7 308.6 422.6 309.3 423.2L316.7 430.6C317.4 431.3 318.3 431.7 319.2 431.7H338.3C339.8 431.7 341.2 430.8 341.8 429.4C342.4 428 342.1 426.4 341 425.3L333.9 418.2V408.8H381.1C382.7 408.8 384 407.9 384.6 406.4C385.2 404.9 384.8 403.3 383.7 402.3L370.6 389.8C370.5 389.7 370.4 389.7 370.3 389.7H352.4L357.4 384.7H395.7C397.2 384.7 398.6 383.8 399.2 382.4C399.8 381 399.5 379.4 398.5 378.3L388.8 367.9C388.1 367.2 387.2 366.7 386.2 366.7H372L376.3 362.4H408.5C410 362.4 411.4 361.5 412 360.1C412.6 358.7 412.3 357.1 411.2 356L400.8 345.6C400.1 344.9 399.2 344.5 398.3 344.5H359.3C358.3 344.5 357.4 344.9 356.8 345.6L342.8 359.6L331.6 348.8C330.4 347.7 329.7 346 329.7 344.4V330C329.7 327.7 328.8 325.6 327.2 324L312.7 309.5H350.6C353.3 309.5 355.8 308.5 357.7 306.6L369.5 294.8C370.6 293.7 370.9 292.1 370.3 290.7C369.7 289.3 368.3 288.4 366.8 288.4H341L349.7 279.7H376.3C377.2 282.3 379.6 284.2 382.4 284.2C386 284.2 388.9 281.3 388.9 277.7C388.9 274.1 386 271.2 382.4 271.2C379.6 271.2 377.1 273 376.3 275.7H349.6C348.6 275.7 347.6 276.1 346.9 276.8L337.8 285.9C336.7 287 336.4 288.6 337 290C337.6 291.4 339 292.3 340.5 292.3H366.2L354.8 303.7C353.7 304.8 352.1 305.5 350.5 305.5H309.1V278H322.2C325.4 278 328.5 276.7 330.7 274.5L339.9 265.3C341.4 263.8 343.4 262.9 345.6 262.9H400.7C401.7 262.9 402.7 262.5 403.4 261.8L416.4 248.8C417.5 247.7 417.8 246.1 417.2 244.7C416.6 243.3 415.2 242.4 413.7 242.4H398L409.4 231H425.1C426 233.6 428.4 235.5 431.2 235.5C434.8 235.5 437.7 232.6 437.7 229C437.7 225.4 434.8 222.6 431.2 222.6ZM198.2 163.7H213.2C213.7 163.7 214.2 163.7 214.8 163.7C217.2 163.8 219.5 163.8 221.1 162.3C222 161.4 222.5 160.1 222.5 158.4C222.5 155.5 224.9 153.1 227.8 153.1H269.7C272.6 153.1 275 155.5 275 158.4V166.7H246.3C245.4 164.1 243 162.2 240.2 162.2C236.6 162.2 233.7 165.1 233.7 168.7C233.7 172.3 236.6 175.2 240.2 175.2C243 175.2 245.5 173.4 246.3 170.7H275V215.5H222.5V189.8C222.5 187.6 220.7 185.8 218.5 185.8H204.7C203.6 185.8 202.6 186.2 201.9 187L195.7 193.2C195 193.9 194.2 193.7 193.8 193.6C193.5 193.5 192.8 193 192.8 192L193 185.5V169C192.9 166.1 195.3 163.7 198.2 163.7ZM328.7 351.6L340.2 362.7C341.6 364.1 343.9 364 345.3 362.7L359.5 348.5H398.2L408.1 358.4H376.2C375.2 358.4 374.3 358.8 373.7 359.5L368.6 364.6C367.6 365.6 367.3 367.2 367.8 368.5C368.4 369.9 369.7 370.7 371.1 370.7H386.3L395.5 380.6H357.5C356.5 380.6 355.6 381 355 381.7L349.2 387.5C348.2 388.5 347.9 390.1 348.4 391.4C349 392.8 350.3 393.6 351.7 393.6H369L380.7 404.8H330.5C330.2 404.8 330 405 330 405.3V419.6C330 419.7 330.1 419.9 330.1 420L337.9 427.8H319.5L312.4 420.6V396.5L323.9 385C324.6 384.3 325 383.4 325 382.5C325 381.6 324.6 380.6 323.9 380L310.3 366.4C309.6 365.7 308.7 365.3 307.8 365.3H294.9L283.9 354.1V352.4V352.3V347H303.2C304 347 304.8 346.8 305.6 346.5L333.3 374.2C332.8 375.1 332.6 376.1 332.6 377.1C332.6 380.7 335.5 383.6 339.1 383.6C342.7 383.6 345.6 380.7 345.6 377.1C345.6 373.5 342.7 370.6 339.1 370.6C338.1 370.6 337.1 370.8 336.2 371.3L308.6 343.7C309 342.9 309.2 342 309.2 341.1V311.5L324.4 326.7C325.3 327.6 325.7 328.7 325.7 329.9V344.2C325.6 347.1 326.8 349.7 328.7 351.6ZM277.2 399.8V423.9L266.2 436.8V423.6C266.2 422.1 265.3 420.7 263.9 420.1C263.4 419.9 262.9 419.8 262.5 419.8C261.5 419.8 260.5 420.2 259.8 420.9L249 432.1L237.7 421C236.6 419.9 235 419.6 233.6 420.2C232.2 420.8 231.3 422.2 231.3 423.7V436.9L220.3 424V399.8C220.3 398.3 219.4 396.9 218 396.3C216.6 395.7 215 396 213.9 397.1L205.9 405.1V384.3L216.6 373.6C217.3 372.9 217.7 371.9 217.7 370.9V354.3C217.7 354.2 217.7 354.2 217.7 354.1V347H222.5C224.9 347 227.2 347.5 229.4 348.5V376.4C226.8 377.3 224.9 379.7 224.9 382.5C224.9 386.1 227.8 389 231.4 389C235 389 237.9 386.1 237.9 382.5C237.9 379.7 236.1 377.2 233.4 376.4V351C233.8 351.3 234.1 351.6 234.4 351.9L245 362.5C245.6 363.1 246.3 363.6 247.2 363.8V399.3C244.6 400.2 242.7 402.6 242.7 405.4C242.7 409 245.6 411.9 249.2 411.9C252.8 411.9 255.7 409 255.7 405.4C255.7 402.6 253.9 400.1 251.2 399.3V363.8C252 363.5 252.8 363.1 253.4 362.5L264 351.9C264.3 351.6 264.6 351.3 265 351V376.4C262.4 377.3 260.5 379.7 260.5 382.5C260.5 386.1 263.4 389 267 389C270.6 389 273.5 386.1 273.5 382.5C273.5 379.7 271.7 377.2 269 376.4V348.5C271.2 347.5 273.5 347 275.9 347H280.1V354.1C280.1 354.2 280.1 354.2 280.1 354.3V370.9C280.1 371.9 280.5 372.9 281.2 373.6L291.9 384.3V405.1L283.9 397.1C282.8 396 281.2 395.7 279.8 396.3C278.1 396.8 277.2 398.2 277.2 399.8ZM173.5 379.9C172.8 380.6 172.4 381.5 172.4 382.4C172.4 383.4 172.8 384.3 173.5 384.9L185 396.5V420.5L177.8 427.6H159.4L167.2 419.8C167.3 419.7 167.3 419.6 167.3 419.4V405.1C167.3 404.8 167.1 404.6 166.8 404.6H116.6L128.3 393.4H145.8C147.3 393.4 148.6 392.5 149.1 391.2C149.7 389.8 149.4 388.3 148.3 387.3L142.5 381.5C141.8 380.8 140.9 380.4 140 380.4H102L111.3 370.5H126.4C127.9 370.5 129.2 369.6 129.7 368.3C130.3 366.9 130 365.4 128.9 364.4L123.8 359.3C123.1 358.6 122.2 358.2 121.2 358.2H89.3L99.3 348.3H138L152.1 362.4C153.5 363.8 155.7 363.8 157.2 362.4L168.7 351.3C170.7 349.4 171.8 346.7 171.8 344V330C171.8 328.8 172.3 327.7 173.1 326.8L188.9 311V341.2C188.9 341.9 189 342.7 189.3 343.4L161.3 371.4C160.4 370.9 159.4 370.7 158.4 370.7C154.8 370.7 151.9 373.6 151.9 377.2C151.9 380.8 154.8 383.7 158.4 383.7C162 383.7 164.9 380.8 164.9 377.2C164.9 376.2 164.7 375.2 164.2 374.3L192.1 346.4C193 346.9 193.9 347.1 194.9 347.1H213.6V354.1L202.6 365.3H189.8C188.8 365.3 187.9 365.7 187.3 366.4L173.5 379.9ZM182 220.8C182.3 220.1 182.9 219.6 183.7 219.6H314.2C315 219.6 315.6 220 315.9 220.8C316.2 221.5 316.1 222.3 315.5 222.8L311.1 227.2C307.2 231.1 305 236.4 305 242V341.2C305 342.2 304.2 343.1 303.1 343.1H275.6C270 343.1 264.8 345.3 260.8 349.2L250.2 359.8C249.5 360.5 248.3 360.5 247.5 359.8L236.9 349.2C233 345.3 227.7 343.1 222.1 343.1H194.6C193.6 343.1 192.7 342.3 192.7 341.2V242C192.7 236.4 190.5 231.2 186.6 227.2L182.2 222.8C181.9 222.2 181.7 221.5 182 220.8Z" fill="#FFCC2F"/>
    <path d="M410.1 149.5V173.4C410.1 173.7 410 174.1 409.7 174.3L399.7 184.3C398.8 183.8 397.8 183.6 396.8 183.6C393.2 183.6 390.3 186.5 390.3 190.1C390.3 193.7 393.2 196.6 396.8 196.6C400.4 196.6 403.3 193.7 403.3 190.1C403.3 189.1 403.1 188.1 402.6 187.2L412.6 177.2C413.6 176.2 414.1 174.9 414.1 173.5V149.6C414.1 149.3 414.2 148.9 414.5 148.7L436.7 126.5C436.9 126.3 436.9 126 436.7 125.8L434.6 123.7C434.4 123.5 434.1 123.5 433.9 123.7L411.7 145.9C410.7 146.8 410.1 148.1 410.1 149.5Z" fill="#FFCC2F"/>
    <path d="M432.9 156.8C429.3 156.8 426.4 159.7 426.4 163.3C426.4 166.9 429.3 169.8 432.9 169.8C436.5 169.8 439.4 166.9 439.4 163.3C439.4 162.3 439.2 161.3 438.7 160.4L449.4 149.7C449.5 149.6 449.5 149.5 449.5 149.3C449.5 149.1 449.4 149 449.4 148.9L447.3 146.8C447.1 146.6 446.8 146.6 446.6 146.8L435.9 157.5C434.9 157 433.9 156.8 432.9 156.8Z" fill="#FFCC2F"/>
    <path d="M383.9 136.5C380.3 136.5 377.4 139.4 377.4 143C377.4 146.6 380.3 149.5 383.9 149.5C387.5 149.5 390.4 146.6 390.4 143C390.4 141.7 390 140.5 389.3 139.5L421.8 107C422 106.8 422 106.5 421.8 106.3L419.7 104.2C419.5 104 419.2 104 419 104.2L386.2 137C385.4 136.6 384.7 136.5 383.9 136.5Z" fill="#FFCC2F"/>
    <path d="M140.7 76.3C140.8 76.4 140.9 76.4 141.1 76.4C141.2 76.4 141.3 76.4 141.4 76.3C173.7 56.1 211 45.4 249.1 45.4C287.3 45.4 324.5 56.1 356.8 76.3C357 76.4 357.3 76.4 357.4 76.2L360.3 73.3C360.4 73.2 360.5 73 360.4 72.9C360.3 72.8 360.3 72.6 360.2 72.5C326.9 51.5 288.5 40.3 249 40.3C209.6 40.3 171.1 51.4 137.8 72.5C137.7 72.6 137.6 72.7 137.6 72.9C137.6 73.1 137.6 73.2 137.7 73.3L140.7 76.3Z" fill="#FFCC2F"/>
    <path d="M342.3 90.8C342.4 90.8 342.5 90.9 342.6 90.9C342.7 90.9 342.9 90.8 343 90.8L345.9 87.9C346 87.8 346.1 87.6 346 87.5C345.9 87.4 345.9 87.2 345.8 87.1C316.6 69.6 283.2 60.4 249.1 60.4C215 60.4 181.6 69.6 152.4 87.1C152.3 87.2 152.2 87.3 152.2 87.5C152.2 87.7 152.2 87.8 152.3 87.9L155.2 90.8C155.4 91 155.6 91 155.8 90.9C184 74.2 216.3 65.4 249.1 65.4C281.8 65.3 314.1 74.1 342.3 90.8Z" fill="#FFCC2F"/>
    <path d="M169.3 104.9C169.5 105.1 169.7 105.1 169.9 105C194 91.7 221.3 84.7 249 84.7C276.6 84.7 304 91.7 328.1 105C328.2 105 328.3 105.1 328.3 105.1C328.4 105.1 328.6 105 328.7 105L331.6 102.1C331.7 102 331.8 101.8 331.7 101.7C331.7 101.5 331.6 101.4 331.4 101.3C306.3 87.2 277.8 79.8 248.9 79.8C220 79.8 191.5 87.2 166.4 101.3C166.3 101.4 166.2 101.5 166.1 101.7C166.1 101.9 166.1 102 166.2 102.1L169.3 104.9Z" fill="#FFCC2F"/>
</svg>
