<svg width="498" height="498" fill="none" xmlns="http://www.w3.org/2000/svg">
    <path
        d="M249 497.3c-66.3 0-128.7-25.8-175.6-72.7C26.5 377.7.7 315.3.7 249S26.5 120.3 73.4 73.4C120.3 26.5 182.7.7 249 .7s128.7 25.8 175.6 72.7c46.9 46.9 72.7 109.3 72.7 175.6s-25.8 128.7-72.7 175.6c-46.9 46.9-109.3 72.7-175.6 72.7z"
        fill="#FFCC2F"/>
    <path
        d="M249 490.7c133.487 0 241.7-108.213 241.7-241.7S382.487 7.3 249 7.3 7.3 115.513 7.3 249 115.513 490.7 249 490.7z"
        fill="#FFCC2F"/>
    <path
        d="M249 484.8c-63 0-122.2-24.5-166.7-69.1C37.7 371.2 13.2 312 13.2 249c0-63 24.5-122.2 69.1-166.7C126.8 37.8 186 13.2 249 13.2c63 0 122.2 24.5 166.7 69.1 44.5 44.5 69.1 103.7 69.1 166.7 0 63-24.5 122.2-69.1 166.7-44.6 44.5-103.7 69.1-166.7 69.1zm0-464.6C122.8 20.2 20.2 122.8 20.2 249c0 126.2 102.6 228.8 228.8 228.8 126.2 0 228.8-102.6 228.8-228.8 0-126.2-102.6-228.8-228.8-228.8z"
        fill="#393E7B"/>
    <path
        d="M406.3 91.7c-42-42-97.9-65.2-157.3-65.2-59.4 0-115.3 23.1-157.3 65.2-42 42-65.2 97.9-65.2 157.3 0 59.4 23.1 115.3 65.2 157.3 42 42 97.9 65.2 157.3 65.2 59.4 0 115.3-23.1 157.3-65.2 42-42.1 65.2-97.9 65.2-157.3 0-59.4-23.1-115.3-65.2-157.3z"
        fill="#393E7B"/>
    <path
        d="M238.4 324.1h-28.1c-2.6 0-4.8-2.1-4.8-4.8v-19.9c0-3.2 2.6-5.8 5.8-5.8h27.1c2.6 0 4.8 2.1 4.8 4.8v20.9c-.1 2.6-2.2 4.8-4.8 4.8zm-27.1-27.4c-1.5 0-2.8 1.2-2.8 2.8v19.9c0 1 .8 1.8 1.8 1.8h28.1c1 0 1.8-.8 1.8-1.8v-20.9c0-1-.8-1.8-1.8-1.8h-27.1z"
        fill="#FFCC2F"/>
    <path
        d="M221.4 317.2c-.8 0-1.5-.7-1.5-1.5v-12.3h-4.1v12.3c0 .8-.7 1.5-1.5 1.5s-1.5-.7-1.5-1.5V302c0-.8.7-1.5 1.5-1.5h7.1c.8 0 1.5.7 1.5 1.5v13.8c0 .8-.7 1.4-1.5 1.4zM234.4 303.5h-7.1c-.8 0-1.5-.7-1.5-1.5s.7-1.5 1.5-1.5h7.1c.8 0 1.5.7 1.5 1.5s-.6 1.5-1.5 1.5zM234.4 317.2h-7.1c-.8 0-1.5-.7-1.5-1.5s.7-1.5 1.5-1.5h7.1c.8 0 1.5.7 1.5 1.5s-.6 1.5-1.5 1.5z"
        fill="#FFCC2F"/>
    <path
        d="M230.9 317.2c-.8 0-1.5-.7-1.5-1.5V302c0-.8.7-1.5 1.5-1.5s1.5.7 1.5 1.5v13.8c0 .8-.7 1.4-1.5 1.4zM221.4 310.4h-7.1c-.8 0-1.5-.7-1.5-1.5s.7-1.5 1.5-1.5h7.1c.8 0 1.5.7 1.5 1.5s-.7 1.5-1.5 1.5zM221 296.7c-.8 0-1.5-.7-1.5-1.5V289c0-.8.7-1.5 1.5-1.5s1.5.7 1.5 1.5v6.2c0 .8-.6 1.5-1.5 1.5zM214.5 296.7c-.8 0-1.5-.7-1.5-1.5V289c0-.8.7-1.5 1.5-1.5s1.5.7 1.5 1.5v6.2c0 .8-.7 1.5-1.5 1.5zM227.6 296.7c-.8 0-1.5-.7-1.5-1.5V289c0-.8.7-1.5 1.5-1.5s1.5.7 1.5 1.5v6.2c0 .8-.6 1.5-1.5 1.5zM234.2 296.7c-.8 0-1.5-.7-1.5-1.5V289c0-.8.7-1.5 1.5-1.5s1.5.7 1.5 1.5v6.2c0 .8-.7 1.5-1.5 1.5z"
        fill="#FFCC2F"/>
    <path
        d="M227.6 296.7c-.8 0-1.5-.7-1.5-1.5V289c0-.8.7-1.5 1.5-1.5s1.5.7 1.5 1.5v6.2c0 .8-.6 1.5-1.5 1.5zM221 330.3c-.8 0-1.5-.7-1.5-1.5v-5.3c0-.8.7-1.5 1.5-1.5s1.5.7 1.5 1.5v5.3c0 .8-.6 1.5-1.5 1.5zM214.5 330.3c-.8 0-1.5-.7-1.5-1.5v-5.3c0-.8.7-1.5 1.5-1.5s1.5.7 1.5 1.5v5.3c0 .8-.7 1.5-1.5 1.5zM227.6 330.3c-.8 0-1.5-.7-1.5-1.5v-5.3c0-.8.7-1.5 1.5-1.5s1.5.7 1.5 1.5v5.3c0 .8-.6 1.5-1.5 1.5zM234.2 330.3c-.8 0-1.5-.7-1.5-1.5v-5.3c0-.8.7-1.5 1.5-1.5s1.5.7 1.5 1.5v5.3c0 .8-.7 1.5-1.5 1.5z"
        fill="#FFCC2F"/>
    <path
        d="M227.6 330.3c-.8 0-1.5-.7-1.5-1.5v-5.3c0-.8.7-1.5 1.5-1.5s1.5.7 1.5 1.5v5.3c0 .8-.6 1.5-1.5 1.5zM284.2 263.4h-15.5c-.8 0-1.5-.7-1.5-1.5v-21.7c0-.8.7-1.5 1.5-1.5h15.5c.8 0 1.5.7 1.5 1.5v21.7c0 .8-.6 1.5-1.5 1.5zm-13.9-3h12.5v-18.7h-12.5v18.7z"
        fill="#FFCC2F"/>
    <path
        d="M287.2 276.1h-21.5c-2.7 0-4.9-2.2-4.9-4.9v-33.7c0-2.7 2.2-4.9 4.9-4.9h21.5c2.7 0 4.9 2.2 4.9 4.9v33.7c0 2.7-2.2 4.9-4.9 4.9zm-21.5-40.5c-1.1 0-1.9.9-1.9 1.9v33.7c0 1.1.9 1.9 1.9 1.9h21.5c1.1 0 1.9-.9 1.9-1.9v-33.7c0-1.1-.9-1.9-1.9-1.9h-21.5z"
        fill="#FFCC2F"/>
    <path
        d="M276.4 270.8a2.5 2.5 0 100-5 2.5 2.5 0 000 5zM276.4 314.9c-9.4 0-16.5-3.6-16.5-8.3V301c0-.8.7-1.5 1.5-1.5s1.5.7 1.5 1.5v5.6c0 2.5 5.8 5.3 13.5 5.3s13.5-2.8 13.5-5.3V301c0-.8.7-1.5 1.5-1.5s1.5.7 1.5 1.5v5.6c0 4.7-7.1 8.3-16.5 8.3z"
        fill="#FFCC2F"/>
    <path
        d="M276.4 307.8c-9.4 0-16.5-3.6-16.5-8.3 0-4.7 7.1-8.3 16.5-8.3s16.5 3.6 16.5 8.3c0 4.7-7.1 8.3-16.5 8.3zm0-13.6c-7.7 0-13.5 2.8-13.5 5.3s5.8 5.3 13.5 5.3 13.5-2.8 13.5-5.3-5.8-5.3-13.5-5.3z"
        fill="#FFCC2F"/>
    <path
        d="M276.4 322c-9.4 0-16.5-3.6-16.5-8.3V308c0-.8.7-1.5 1.5-1.5s1.5.7 1.5 1.5v5.6c0 2.5 5.8 5.3 13.5 5.3s13.5-2.8 13.5-5.3V308c0-.8.7-1.5 1.5-1.5s1.5.7 1.5 1.5v5.6c0 4.8-7.1 8.4-16.5 8.4z"
        fill="#FFCC2F"/>
    <path
        d="M276.4 329.1c-9.4 0-16.5-3.6-16.5-8.3v-5.6c0-.8.7-1.5 1.5-1.5s1.5.7 1.5 1.5v5.6c0 2.5 5.8 5.3 13.5 5.3s13.5-2.8 13.5-5.3v-5.6c0-.8.7-1.5 1.5-1.5s1.5.7 1.5 1.5v5.6c0 4.8-7.1 8.3-16.5 8.3zM224.6 273.2c-11.2 0-20.3-9.1-20.3-20.3 0-11.2 9.1-20.3 20.3-20.3 11.2 0 20.3 9.1 20.3 20.3 0 11.2-9.1 20.3-20.3 20.3zm0-38.2c-9.8 0-17.8 8-17.8 17.8s8 17.8 17.8 17.8 17.8-8 17.8-17.8-8-17.8-17.8-17.8z"
        fill="#FFCC2F"/>
    <path
        d="M224.6 273.2c-6.8 0-12.1-8.9-12.1-20.3s5.3-20.3 12.1-20.3 12.1 8.9 12.1 20.3-5.3 20.3-12.1 20.3zm0-38.2c-5.3 0-9.6 8-9.6 17.8s4.3 17.8 9.6 17.8 9.6-8 9.6-17.8-4.3-17.8-9.6-17.8z"
        fill="#FFCC2F"/>
    <path d="M224.6 273.2c-.7 0-1.3-.6-1.3-1.3v-38.2c0-.7.6-1.3 1.3-1.3.7 0 1.3.6 1.3 1.3v38.2c-.1.7-.6 1.3-1.3 1.3z"
          fill="#FFCC2F"/>
    <path
        d="M242.7 254.1h-36.2c-.7 0-1.3-.6-1.3-1.3 0-.7.6-1.3 1.3-1.3h36.2c.7 0 1.3.6 1.3 1.3 0 .7-.6 1.3-1.3 1.3zM241.3 262.3h-33.4c-.7 0-1.3-.6-1.3-1.3 0-.7.6-1.3 1.3-1.3h33.4c.7 0 1.3.6 1.3 1.3 0 .7-.6 1.3-1.3 1.3zM241.3 245.9h-33.4c-.7 0-1.3-.6-1.3-1.3 0-.7.6-1.3 1.3-1.3h33.4c.7 0 1.3.6 1.3 1.3 0 .7-.6 1.3-1.3 1.3z"
        fill="#FFCC2F"/>
    <path
        d="M242.7 272.8c-.7 0-1.4-.3-1.9-.8l-3.6-3.5-2.3 2.2c-.5.5-1.2.8-1.9.8-.2 0-.4 0-.6-.1-.9-.2-1.6-.8-2-1.7l-5-12.8c-.2-.6-.3-1.3 0-1.9.2-.6.7-1.1 1.2-1.5.2-.1.4-.2.7-.3.2-.1.4-.1.7-.1.2 0 .5 0 .7.1.1 0 .2 0 .2.1l13.3 4.7c.9.3 1.6 1.1 1.8 2 .2.9-.1 1.9-.8 2.6l-2.1 2.1 3.5 3.3c1.1 1 1.1 2.8.1 3.9-.4.5-1 .7-1.6.8-.1.1-.2.1-.4.1z"
        fill="#393E7B"/>
    <path
        d="M228.1 254.5c.1 0 .3 0 .4.1h.1l13.3 4.7c.5.2.9.6 1 1.1.1.5 0 1-.4 1.4l-3.1 3 4.4 4.2c.6.6.6 1.5 0 2.1-.2.3-.6.4-.9.4h-.2c-.4 0-.7-.1-1-.4l-4.5-4.3-3.1 3c-.3.3-.7.4-1 .4h-.3c-.5-.1-.9-.5-1.1-.9l-5-12.8c-.1-.3-.1-.7 0-1 .1-.4.4-.6.7-.8.1-.1.2-.1.4-.2.1.1.2 0 .3 0zm0-2.5c-.3 0-.7 0-1 .1-.3.1-.7.2-1 .4-.8.5-1.5 1.2-1.8 2.1-.3.9-.3 1.9.1 2.8l4.9 12.7c.5 1.3 1.6 2.2 2.9 2.5.3.1.6.1.9.1 1 0 2-.4 2.8-1.1l1.4-1.3 2.7 2.6c.7.7 1.7 1.1 2.8 1.1h.5c.9-.1 1.8-.5 2.4-1.2 1.5-1.6 1.5-4.1-.1-5.6l-2.5-2.4 1.2-1.2c1-1 1.4-2.4 1.1-3.7-.3-1.4-1.3-2.5-2.6-2.9l-13.3-4.7c-.1 0-.2-.1-.3-.1-.4-.1-.7-.2-1.1-.2zM163.2 128.9c1.6 1.6 2.4 3.7 2.4 5.9v27.5c0 1.3-.5 2.5-1.4 3.5l-20.8 20.8c-1.7 1.7-2.6 3.9-2.6 6.3v19.8c0 3.8 3.1 6.9 6.9 6.9h8.2c.9 2.6 3.3 4.5 6.1 4.5 3.6 0 6.5-2.9 6.5-6.5s-2.9-6.5-6.5-6.5c-2.8 0-5.3 1.8-6.1 4.5h-8.2c-1.6 0-2.9-1.3-2.9-2.9v-19.8c0-1.3.5-2.5 1.4-3.5l20.8-20.8c1.7-1.7 2.6-3.9 2.6-6.3v-27.5c0-3.3-1.3-6.4-3.6-8.7l-56.8-56.8c-.2-.2-.5-.2-.7 0l-2.1 2.1c-.2.2-.2.5 0 .7l56.8 56.8zM93.3 212.8c.6-1.4.3-3-.8-4.1l-18.1-18.1c-.7-.7-1.7-1.1-2.7-1.1H57.8l-17.9-17.9c-.2-.2-.5-.2-.7 0l-2.1 2.1c-.2.2-.2.5 0 .7l18 18c.7.7 1.7 1.1 2.7 1.1h13.9l17.6 17.6H50l-18.8-18.8c-.2-.2-.5-.2-.7 0l-2.1 2.1c-.2.2-.2.5 0 .7L47.3 214c.7.7 1.7 1.1 2.7 1.1h39.9c1.4 0 2.8-.9 3.4-2.3z"
        fill="#FFCC2F"/>
    <path
        d="M137.7 134.8c1.3 1.3 2 3.1 2 4.9v16c0 1.9-.7 3.6-2 4.9l-14.6 14.6c-2.1 2.1-3.2 4.8-3.2 7.7v27.7c-2.4 1-4 3.3-4 5.9 0 3.6 2.9 6.5 6.5 6.5s6.5-2.9 6.5-6.5c0-3-2-5.6-4.9-6.3V183c0-1.9.7-3.6 2-4.9l14.6-14.6c2.1-2.1 3.2-4.8 3.2-7.7v-16c0-2.9-1.1-5.7-3.2-7.7l-45-45c-.2-.2-.5-.2-.7 0l-2.1 2.1c-.1.1-.1.2-.1.4s.1.3.1.4l44.9 44.8zM82.9 148.6c.2.2.4.6.4.9v23.9c0 1.4.5 2.7 1.5 3.7l10 10c-.5.9-.7 1.9-.7 2.9 0 3.6 2.9 6.5 6.5 6.5s6.5-2.9 6.5-6.5-2.9-6.5-6.5-6.5c-1 0-2 .2-2.9.7l-10-10c-.2-.2-.4-.6-.4-.9v-23.9c0-1.4-.5-2.7-1.5-3.7l-22.2-22.2c-.2-.2-.5-.2-.7 0l-2.1 2.1c-.2.2-.2.5 0 .7l22.1 22.3zM58.8 160.3c-.5.9-.7 1.9-.7 2.9 0 3.6 2.9 6.5 6.5 6.5s6.5-2.9 6.5-6.5-2.9-6.5-6.5-6.5c-1 0-2 .2-2.9.7L51 146.7c-.2-.2-.5-.2-.7 0l-2.1 2.1c-.2.2-.2.5 0 .7l10.6 10.8z"
        fill="#FFCC2F"/>
    <path
        d="M108.1 139.4c-.7 1.1-1.1 2.3-1.1 3.5 0 3.6 2.9 6.5 6.5 6.5s6.5-2.9 6.5-6.5-2.9-6.5-6.5-6.5c-.8 0-1.5.1-2.2.4L78.5 104c-.2-.2-.5-.2-.7 0l-2.1 2.1c-.2.2-.2.5 0 .7l32.4 32.6zM327.8 134.7v27.5c0 2.4.9 4.6 2.6 6.3l20.8 20.8c.9.9 1.4 2.2 1.4 3.5v19.8c0 1.6-1.3 2.9-2.9 2.9h-8.2c-.9-2.6-3.3-4.5-6.1-4.5-3.6 0-6.5 2.9-6.5 6.5s2.9 6.5 6.5 6.5c2.8 0 5.3-1.8 6.1-4.5h8.2c3.8 0 6.9-3.1 6.9-6.9v-19.8c0-2.4-.9-4.6-2.6-6.3l-20.8-20.8c-.9-.9-1.4-2.2-1.4-3.5v-27.5c0-2.2.9-4.3 2.4-5.9L391 72c.2-.2.2-.5 0-.7l-2.1-2.1c-.2-.2-.5-.2-.7 0L331.4 126c-2.3 2.4-3.6 5.5-3.6 8.7zM469 194.4l-2.1-2.1c-.2-.2-.5-.2-.7 0l-18.8 18.8h-39.3l17.6-17.6h13.9c1 0 2-.4 2.7-1.1l18-18c.2-.2.2-.5 0-.7l-2.1-2.1c-.2-.2-.5-.2-.7 0l-17.9 17.9h-13.9c-1 0-2 .4-2.7 1.1l-18.1 18.1c-1.1 1.1-1.4 2.7-.8 4.1.6 1.4 2 2.3 3.5 2.3h39.9c1 0 2-.4 2.7-1.1l18.9-18.9c.1-.2.1-.5-.1-.7z"
        fill="#FFCC2F"/>
    <path
        d="M353.7 139.7v16c0 2.9 1.1 5.7 3.2 7.7l14.6 14.6c1.3 1.3 2 3.1 2 4.9v27.4c-2.9.7-4.9 3.3-4.9 6.3 0 3.6 2.9 6.5 6.5 6.5s6.5-2.9 6.5-6.5c0-2.6-1.6-5-4-5.9V183c0-2.9-1.1-5.7-3.2-7.7l-14.6-14.6c-1.3-1.3-2-3.1-2-4.9v-16c0-1.9.7-3.6 2-4.9l45-45c.2-.2.2-.5 0-.7l-2.1-2.1c-.2-.2-.5-.2-.7 0l-45 45c-2.2 1.9-3.3 4.7-3.3 7.6z"
        fill="#FFCC2F"/>
    <path
        d="M431.2 222.6c-2.8 0-5.3 1.8-6.1 4.5h-15.8c-1 0-2 .4-2.7 1.1L394.8 240c-1.1 1.1-1.4 2.7-.8 4.1.6 1.4 2 2.3 3.5 2.3h15.6L400.6 259h-55c-3.2 0-6.3 1.3-8.5 3.5l-9.2 9.2c-1.5 1.5-3.5 2.4-5.7 2.4h-13.1v-27h33.4c.1 0 .3-.1.4-.1l7.6-7.6h18.4c.9 2.6 3.3 4.5 6.1 4.5 3.6 0 6.5-2.9 6.5-6.5s-2.9-6.5-6.5-6.5c-2.8 0-5.3 1.8-6.1 4.5H349c-.1 0-.3.1-.4.1L341 243h-32v-1c0-4.5 1.8-8.8 4.9-11.9l4.4-4.4c1.7-1.7 2.2-4.2 1.3-6.4-.9-2.2-3-3.6-5.4-3.6h-35.3v-57.1c0-5.1-4.2-9.3-9.3-9.3h-41.9c-5.1 0-9.3 4.2-9.3 9.3 0 .7-.1 1-.2 1-.4.4-2.2.3-3.4.3h-16.7c-5.1 0-9.3 4.2-9.3 9.3v16.4l-.2 6.5c-.1 2.3 1.3 4.5 3.4 5.4 2.2.9 4.6.4 6.3-1.2l6.2-6.2h13.8v25.7h-34.7c-2.4 0-4.5 1.4-5.4 3.6-.9 2.2-.4 4.7 1.3 6.4l4.4 4.4c3.2 3.2 4.9 7.4 4.9 11.9v1.1h-32.6l-7.6-7.6c-.1-.1-.2-.1-.4-.1h-19.9c-.9-2.6-3.3-4.5-6.1-4.5-3.6 0-6.5 2.9-6.5 6.5s2.9 6.5 6.5 6.5c2.8 0 5.3-1.8 6.1-4.5h18.4l7.6 7.6c.1.1.2.1.4.1h34v27H175c-2.2 0-4.2-.8-5.7-2.4l-9.2-9.2c-2.3-2.3-5.3-3.5-8.5-3.5h-55l-12.5-12.5h15.6c1.5 0 2.9-.9 3.5-2.3.6-1.4.3-3-.8-4.1l-11.8-11.8c-.7-.7-1.7-1.1-2.7-1.1H72.1c-.9-2.6-3.3-4.5-6.1-4.5-3.6 0-6.5 2.9-6.5 6.5s2.9 6.5 6.5 6.5c2.8 0 5.3-1.8 6.1-4.5H88l11.4 11.4H83.8c-1.5 0-2.9.9-3.5 2.3-.6 1.4-.3 3 .8 4.1l13 13c.7.7 1.7 1.1 2.7 1.1h55.1c2.2 0 4.2.8 5.7 2.4l9.2 9.2c2.3 2.3 5.3 3.5 8.5 3.5H189v27.5h-42c-1.6 0-3.1-.6-4.3-1.8l-11.4-11.4H157c1.5 0 2.9-.9 3.5-2.3.6-1.4.3-3-.8-4.1l-9.1-9.1c-.7-.7-1.7-1.1-2.7-1.1H121c-.9-2.6-3.3-4.5-6.1-4.5-3.6 0-6.5 2.9-6.5 6.5s2.9 6.5 6.5 6.5c2.8 0 5.3-1.8 6.1-4.5h26.6l8.7 8.7h-25.7c-1.5 0-2.9.9-3.5 2.3-.6 1.4-.3 3 .8 4.1l11.8 11.8c1.9 1.9 4.4 2.9 7.1 2.9h37.9L170.3 324c-1.6 1.6-2.5 3.7-2.5 6v14.3c0 1.7-.7 3.3-1.9 4.4l-11.2 10.8-14-14c-.7-.7-1.6-1.1-2.5-1.1h-39c-.9 0-1.9.4-2.5 1.1l-10.4 10.4c-1.1 1.1-1.4 2.7-.8 4.1.6 1.4 2 2.3 3.5 2.3h32.3l4.3 4.3h-14.3c-1 0-2 .4-2.6 1.2L99 378.2c-1 1.1-1.3 2.7-.7 4.1.6 1.4 1.9 2.3 3.5 2.3h38.4l5 5H127c-.1 0-.3 0-.3.1l-13.1 12.5c-1.1 1.1-1.5 2.7-.9 4.1.6 1.4 2 2.4 3.5 2.4h47.2v9.4l-7.1 7.1c-1.1 1.1-1.4 2.7-.8 4.1.6 1.4 2 2.3 3.5 2.3h19c.9 0 1.9-.4 2.5-1.1l7.4-7.4c.7-.7 1.1-1.6 1.1-2.5v-24.4c0-.9-.4-1.9-1.1-2.5l-11.3-11.3 13.2-13.2h12.8c1 0 1.9-.4 2.6-1.1l8.3-8.4v11.1l-10.7 10.7c-.7.7-1.1 1.7-1.1 2.7v21.4c0 1.5.9 2.9 2.3 3.5 1.4.6 3 .3 4.1-.8l8-8V424c0 1 .4 1.9 1 2.6l11.4 13.4.1.1c1.1 1.1 2.7 1.4 4.1.8 1.4-.6 2.3-2 2.3-3.5v-13.2l11 10.9c.7.7 1.7 1.1 2.8 1.1 1.1 0 2-.4 2.8-1.2l10.4-10.8v13.2c0 1.5.9 2.9 2.3 3.5.5.2 1 .3 1.5.3 1 0 2-.4 2.7-1.1l11.4-13.4c.7-.7 1.1-1.7 1.1-2.6v-23.7l8 8c1.1 1.1 2.7 1.4 4.1.8 1.4-.6 2.3-2 2.3-3.5v-21.4c0-1-.4-2-1.1-2.7l-10.7-10.7v-11.1l8.3 8.4c.7.7 1.6 1.1 2.6 1.1h12.9l13.2 13.2-11.3 11.3c-.7.7-1.1 1.6-1.1 2.5v24.4c0 1 .4 1.9 1.1 2.5l7.4 7.4c.7.7 1.6 1.1 2.5 1.1h19.1c1.5 0 2.9-.9 3.5-2.3.6-1.4.3-3-.8-4.1l-7.1-7.1v-9.4h47.2c1.6 0 2.9-.9 3.5-2.4.6-1.5.2-3.1-.9-4.1l-13.1-12.5c-.1-.1-.2-.1-.3-.1h-17.9l5-5h38.3c1.5 0 2.9-.9 3.5-2.3.6-1.4.3-3-.7-4.1l-9.7-10.4c-.7-.7-1.6-1.2-2.6-1.2H372l4.3-4.3h32.2c1.5 0 2.9-.9 3.5-2.3.6-1.4.3-3-.8-4.1l-10.4-10.4c-.7-.7-1.6-1.1-2.5-1.1h-39c-1 0-1.9.4-2.5 1.1l-14 14-11.2-10.8c-1.2-1.1-1.9-2.8-1.9-4.4V330c0-2.3-.9-4.4-2.5-6l-14.5-14.5h37.9c2.7 0 5.2-1 7.1-2.9l11.8-11.8c1.1-1.1 1.4-2.7.8-4.1-.6-1.4-2-2.3-3.5-2.3H341l8.7-8.7h26.6c.9 2.6 3.3 4.5 6.1 4.5 3.6 0 6.5-2.9 6.5-6.5s-2.9-6.5-6.5-6.5c-2.8 0-5.3 1.8-6.1 4.5h-26.7c-1 0-2 .4-2.7 1.1l-9.1 9.1c-1.1 1.1-1.4 2.7-.8 4.1.6 1.4 2 2.3 3.5 2.3h25.7l-11.4 11.4c-1.1 1.1-2.7 1.8-4.3 1.8h-41.4V278h13.1c3.2 0 6.3-1.3 8.5-3.5l9.2-9.2c1.5-1.5 3.5-2.4 5.7-2.4h55.1c1 0 2-.4 2.7-1.1l13-13c1.1-1.1 1.4-2.7.8-4.1-.6-1.4-2-2.3-3.5-2.3H398l11.4-11.4h15.7c.9 2.6 3.3 4.5 6.1 4.5 3.6 0 6.5-2.9 6.5-6.5s-2.9-6.4-6.5-6.4zm-233-58.9h16.6c2.4.1 4.7.1 6.3-1.4.9-.9 1.4-2.2 1.4-3.9 0-2.9 2.4-5.3 5.3-5.3h41.9c2.9 0 5.3 2.4 5.3 5.3v8.3h-28.7c-.9-2.6-3.3-4.5-6.1-4.5-3.6 0-6.5 2.9-6.5 6.5s2.9 6.5 6.5 6.5c2.8 0 5.3-1.8 6.1-4.5H275v44.8h-52.5v-25.7c0-2.2-1.8-4-4-4h-13.8c-1.1 0-2.1.4-2.8 1.2l-6.2 6.2c-.7.7-1.5.5-1.9.4-.3-.1-1-.6-1-1.6l.2-6.5V169c-.1-2.9 2.3-5.3 5.2-5.3zm130.5 187.9l11.5 11.1c1.4 1.4 3.7 1.3 5.1 0l14.2-14.2h38.7l9.9 9.9h-31.9c-1 0-1.9.4-2.5 1.1l-5.1 5.1c-1 1-1.3 2.6-.8 3.9.6 1.4 1.9 2.2 3.3 2.2h15.2l9.2 9.9h-38c-1 0-1.9.4-2.5 1.1l-5.8 5.8c-1 1-1.3 2.6-.8 3.9.6 1.4 1.9 2.2 3.3 2.2H369l11.7 11.2h-50.2c-.3 0-.5.2-.5.5v14.3c0 .1.1.3.1.4l7.8 7.8h-18.4l-7.1-7.2v-24.1l11.5-11.5c.7-.7 1.1-1.6 1.1-2.5 0-.9-.4-1.9-1.1-2.5l-13.6-13.6c-.7-.7-1.6-1.1-2.5-1.1h-12.9l-11-11.2V347h19.3c.8 0 1.6-.2 2.4-.5l27.7 27.7c-.5.9-.7 1.9-.7 2.9 0 3.6 2.9 6.5 6.5 6.5s6.5-2.9 6.5-6.5-2.9-6.5-6.5-6.5c-1 0-2 .2-2.9.7l-27.6-27.6c.4-.8.6-1.7.6-2.6v-29.6l15.2 15.2c.9.9 1.3 2 1.3 3.2v14.3c-.1 2.9 1.1 5.5 3 7.4zm-51.5 48.2v24.1l-11 12.9v-13.2c0-1.5-.9-2.9-2.3-3.5-.5-.2-1-.3-1.4-.3-1 0-2 .4-2.7 1.1L249 432.1 237.7 421c-1.1-1.1-2.7-1.4-4.1-.8-1.4.6-2.3 2-2.3 3.5v13.2l-11-12.9v-24.2c0-1.5-.9-2.9-2.3-3.5-1.4-.6-3-.3-4.1.8l-8 8v-20.8l10.7-10.7c.7-.7 1.1-1.7 1.1-2.7v-16.6-7.3h4.8c2.4 0 4.7.5 6.9 1.5v27.9c-2.6.9-4.5 3.3-4.5 6.1 0 3.6 2.9 6.5 6.5 6.5s6.5-2.9 6.5-6.5c0-2.8-1.8-5.3-4.5-6.1V351c.4.3.7.6 1 .9l10.6 10.6c.6.6 1.3 1.1 2.2 1.3v35.5c-2.6.9-4.5 3.3-4.5 6.1 0 3.6 2.9 6.5 6.5 6.5s6.5-2.9 6.5-6.5c0-2.8-1.8-5.3-4.5-6.1v-35.5c.8-.3 1.6-.7 2.2-1.3l10.6-10.6c.3-.3.6-.6 1-.9v25.4c-2.6.9-4.5 3.3-4.5 6.1 0 3.6 2.9 6.5 6.5 6.5s6.5-2.9 6.5-6.5c0-2.8-1.8-5.3-4.5-6.1v-27.9c2.2-1 4.5-1.5 6.9-1.5h4.2V370.9c0 1 .4 2 1.1 2.7l10.7 10.7v20.8l-8-8c-1.1-1.1-2.7-1.4-4.1-.8-1.7.5-2.6 1.9-2.6 3.5zm-103.7-19.9c-.7.7-1.1 1.6-1.1 2.5 0 1 .4 1.9 1.1 2.5l11.5 11.6v24l-7.2 7.1h-18.4l7.8-7.8c.1-.1.1-.2.1-.4v-14.3c0-.3-.2-.5-.5-.5h-50.2l11.7-11.2h17.5c1.5 0 2.8-.9 3.3-2.2.6-1.4.3-2.9-.8-3.9l-5.8-5.8c-.7-.7-1.6-1.1-2.5-1.1h-38l9.3-9.9h15.1c1.5 0 2.8-.9 3.3-2.2.6-1.4.3-2.9-.8-3.9l-5.1-5.1c-.7-.7-1.6-1.1-2.6-1.1H89.3l10-9.9H138l14.1 14.1c1.4 1.4 3.6 1.4 5.1 0l11.5-11.1c2-1.9 3.1-4.6 3.1-7.3v-14c0-1.2.5-2.3 1.3-3.2l15.8-15.8v30.2c0 .7.1 1.5.4 2.2l-28 28c-.9-.5-1.9-.7-2.9-.7-3.6 0-6.5 2.9-6.5 6.5s2.9 6.5 6.5 6.5 6.5-2.9 6.5-6.5c0-1-.2-2-.7-2.9l27.9-27.9c.9.5 1.8.7 2.8.7h18.7v7l-11 11.2h-12.8c-1 0-1.9.4-2.5 1.1l-13.8 13.5zm8.5-159.1c.3-.7.9-1.2 1.7-1.2h130.5c.8 0 1.4.4 1.7 1.2.3.7.2 1.5-.4 2l-4.4 4.4c-3.9 3.9-6.1 9.2-6.1 14.8v99.2c0 1-.8 1.9-1.9 1.9h-27.5c-5.6 0-10.8 2.2-14.8 6.1l-10.6 10.6c-.7.7-1.9.7-2.7 0l-10.6-10.6c-3.9-3.9-9.2-6.1-14.8-6.1h-27.5c-1 0-1.9-.8-1.9-1.9V242c0-5.6-2.2-10.8-6.1-14.8l-4.4-4.4c-.3-.6-.5-1.3-.2-2zM410.1 149.5v23.9c0 .3-.1.7-.4.9l-10 10c-.9-.5-1.9-.7-2.9-.7-3.6 0-6.5 2.9-6.5 6.5s2.9 6.5 6.5 6.5 6.5-2.9 6.5-6.5c0-1-.2-2-.7-2.9l10-10c1-1 1.5-2.3 1.5-3.7v-23.9c0-.3.1-.7.4-.9l22.2-22.2c.2-.2.2-.5 0-.7l-2.1-2.1c-.2-.2-.5-.2-.7 0l-22.2 22.2c-1 .9-1.6 2.2-1.6 3.6zM432.9 156.8c-3.6 0-6.5 2.9-6.5 6.5s2.9 6.5 6.5 6.5 6.5-2.9 6.5-6.5c0-1-.2-2-.7-2.9l10.7-10.7c.1-.1.1-.2.1-.4s-.1-.3-.1-.4l-2.1-2.1c-.2-.2-.5-.2-.7 0l-10.7 10.7c-1-.5-2-.7-3-.7zM383.9 136.5c-3.6 0-6.5 2.9-6.5 6.5s2.9 6.5 6.5 6.5 6.5-2.9 6.5-6.5c0-1.3-.4-2.5-1.1-3.5l32.5-32.5c.2-.2.2-.5 0-.7l-2.1-2.1c-.2-.2-.5-.2-.7 0L386.2 137c-.8-.4-1.5-.5-2.3-.5zM140.7 76.3c.1.1.2.1.4.1.1 0 .2 0 .3-.1 32.3-20.2 69.6-30.9 107.7-30.9 38.2 0 75.4 10.7 107.7 30.9.2.1.5.1.6-.1l2.9-2.9c.1-.1.2-.3.1-.4-.1-.1-.1-.3-.2-.4-33.3-21-71.7-32.2-111.2-32.2-39.4 0-77.9 11.1-111.2 32.2-.1.1-.2.2-.2.4s0 .3.1.4l3 3z"
        fill="#FFCC2F"/>
    <path
        d="M342.3 90.8c.1 0 .2.1.3.1.1 0 .3-.1.4-.1l2.9-2.9c.1-.1.2-.3.1-.4-.1-.1-.1-.3-.2-.4-29.2-17.5-62.6-26.7-96.7-26.7s-67.5 9.2-96.7 26.7c-.1.1-.2.2-.2.4s0 .3.1.4l2.9 2.9c.2.2.4.2.6.1 28.2-16.7 60.5-25.5 93.3-25.5 32.7-.1 65 8.7 93.2 25.4z"
        fill="#FFCC2F"/>
    <path
        d="M169.3 104.9c.2.2.4.2.6.1C194 91.7 221.3 84.7 249 84.7c27.6 0 55 7 79.1 20.3.1 0 .2.1.2.1.1 0 .3-.1.4-.1l2.9-2.9c.1-.1.2-.3.1-.4 0-.2-.1-.3-.3-.4-25.1-14.1-53.6-21.5-82.5-21.5s-57.4 7.4-82.5 21.5c-.1.1-.2.2-.3.4 0 .2 0 .3.1.4l3.1 2.8z"
        fill="#FFCC2F"/>
</svg>
