<?xml version="1.0" encoding="utf-8"?>
<!-- Generator: Adobe Illustrator 24.3.0, SVG Export Plug-In . SVG Version: 6.00 Build 0)  -->
<svg version="1.1" id="Layer_1" xmlns="http://www.w3.org/2000/svg" xmlns:xlink="http://www.w3.org/1999/xlink" x="0px" y="0px"
	 viewBox="0 0 140.5 137.6" style="enable-background:new 0 0 140.5 137.6;" xml:space="preserve">
<style type="text/css">
	.st0{fill:#3569A5;}
	.st1{fill:#FF4D4D;}
</style>
<g>
	<path class="st0" d="M115.1,25C90.6,0.5,50.7,0.5,26.2,25C14.4,36.8,7.8,52.6,7.8,69.4c0,16.8,6.5,32.6,18.4,44.4
		c11.9,11.9,27.6,18.4,44.4,18.4s32.6-6.5,44.4-18.4c11.9-11.9,18.4-27.6,18.4-44.4C133.5,52.6,127,36.8,115.1,25z M110.1,108.9
		c-10.5,10.5-24.6,16.4-39.5,16.4s-28.9-5.8-39.5-16.4C20.6,98.3,14.8,84.3,14.8,69.4c0-14.9,5.8-28.9,16.4-39.5
		C42.1,19,56.4,13.6,70.7,13.6c14.3,0,28.6,5.4,39.5,16.3c10.5,10.5,16.4,24.6,16.4,39.5C126.5,84.3,120.7,98.3,110.1,108.9z"/>
	<path class="st0" d="M113.4,50.2c0.7-1.1,1.1-2.4,1.1-3.8c0-1.9-0.7-3.7-2.1-5c0,0,0,0,0,0c0,0,0,0,0,0c-1.3-1.3-3.1-2.1-5-2.1
		c-1.9,0-3.7,0.7-5,2.1c-1.3,1.3-2.1,3.1-2.1,5c0,1.9,0.7,3.7,2.1,5c1.3,1.3,3,2,4.8,2.1c6.5,14.9,3.4,32.3-8.4,44.1
		c-11.8,11.8-29.2,14.9-44.1,8.4c-0.1-1.7-0.7-3.5-2.1-4.8c-1.3-1.3-3.1-2.1-5-2.1c-1.9,0-3.7,0.7-5,2.1c-2.8,2.8-2.8,7.3,0,10
		c1.4,1.4,3.2,2.1,5,2.1c1.3,0,2.6-0.4,3.8-1.1c6.2,2.8,12.7,4.2,19.3,4.2c12.1,0,24-4.7,33.1-13.8
		C117.8,88.5,121.4,67.7,113.4,50.2z"/>
	<path class="st0" d="M38.9,87.4c-1.3-1.3-3-2-4.8-2.1c-6.5-14.9-3.4-32.3,8.4-44.1c11.8-11.8,29.2-14.9,44.1-8.4
		c0.1,1.8,0.8,3.5,2.1,4.8c1.3,1.3,3.1,2.1,5,2.1s3.7-0.7,5-2.1c1.3-1.3,2.1-3.1,2.1-5c0-1.9-0.7-3.7-2.1-5c0,0,0,0,0,0c0,0,0,0,0,0
		c-1.3-1.3-3.1-2.1-5-2.1c-1.4,0-2.7,0.4-3.8,1.1c-17.6-8-38.3-4.4-52.3,9.6c-14,14-17.6,34.8-9.6,52.3c-1.7,2.7-1.4,6.4,1,8.8
		c1.4,1.4,3.2,2.1,5,2.1c1.8,0,3.6-0.7,5-2.1C41.7,94.6,41.7,90.1,38.9,87.4z"/>
</g>
<path class="st1" d="M75.3,64.9c-0.2,0-0.3-0.2-0.3-0.4V53.9c0-0.2,0.2-0.4,0.4-0.4h8.2c2.4,0,4.4-1.8,4.5-4.1
	c0.1-1.2-0.4-2.4-1.2-3.2c-0.8-0.9-1.9-1.4-3.2-1.4h-8.4c-0.2,0-0.4-0.2-0.4-0.4v-5.9c0-2.4-2-4.3-4.3-4.3c-2.4,0-4.3,2-4.3,4.3v6
	c0,0.2-0.1,0.3-0.3,0.4c-7.8,0.7-13.7,6.8-13.7,14.2c0,7.3,6,13.5,13.7,14.2c0.2,0,0.3,0.2,0.3,0.4v10.7c0,0.2-0.2,0.4-0.4,0.4h-9.1
	c-2.4,0-4.4,1.8-4.5,4.1c-0.1,1.2,0.4,2.4,1.2,3.2c0.8,0.9,1.9,1.4,3.2,1.4h9.3c0.2,0,0.4,0.2,0.4,0.4v6.5c0,2.4,2,4.3,4.3,4.3
	c2.4,0,4.3-2,4.3-4.3v-6.6c0-0.2,0.1-0.4,0.3-0.4c7.7-0.7,13.8-6.9,13.8-14.2C89.1,71.7,83,65.5,75.3,64.9z M80.4,79.1
	c0,2.6-2.2,4.9-5.2,5.5c-0.1,0-0.1,0-0.2,0c0,0-0.1-0.1-0.1-0.2V73.8c0-0.1,0-0.1,0.1-0.2c0,0,0.1,0,0.1,0c0,0,0,0,0,0h0
	C78.2,74.2,80.4,76.5,80.4,79.1z M66.3,53.8v10.5c0,0.1-0.1,0.1-0.1,0.2c0,0-0.1,0.1-0.2,0c-2.9-0.6-5.1-2.9-5.1-5.4
	c0-2.6,2.1-4.9,5.1-5.4c0,0,0,0,0,0c0.1,0,0.1,0,0.1,0C66.2,53.7,66.3,53.8,66.3,53.8z"/>
</svg>
