<svg width="41" height="40" viewBox="0 0 41 40" fill="none" xmlns="http://www.w3.org/2000/svg">
  <rect width="41" height="40" fill="white"/>
  <rect width="20" height="19" fill="#095599"/>
  <path d="M5.615 5.67C6.12167 5.67 6.57167 5.77667 6.965 5.99C7.36167 6.2 7.68 6.48167 7.92 6.835C8.16 7.18833 8.30167 7.57667 8.345 8H7.36C7.27667 7.57667 7.08667 7.21667 6.79 6.92C6.49667 6.62333 6.09667 6.475 5.59 6.475C4.93 6.475 4.42667 6.70833 4.08 7.175C3.73667 7.63833 3.565 8.37 3.565 9.37C3.565 10.3767 3.73667 11.1167 4.08 11.59C4.42667 12.06 4.93 12.295 5.59 12.295C5.93 12.295 6.22167 12.2233 6.465 12.08C6.70833 11.9333 6.905 11.7417 7.055 11.505C7.205 11.265 7.30667 11.005 7.36 10.725H8.345C8.295 11.135 8.16333 11.5217 7.95 11.885C7.74 12.245 7.44167 12.5383 7.055 12.765C6.66833 12.9883 6.18833 13.1 5.615 13.1C4.63833 13.1 3.88167 12.7717 3.345 12.115C2.80833 11.4583 2.54 10.54 2.54 9.36C2.54 8.18333 2.80667 7.275 3.34 6.635C3.87667 5.99167 4.635 5.67 5.615 5.67ZM12.1445 13V5.77H14.5895C15.1061 5.77 15.5661 5.85667 15.9695 6.03C16.3728 6.20333 16.6895 6.46 16.9195 6.8C17.1528 7.14 17.2695 7.55833 17.2695 8.055C17.2695 8.535 17.1611 8.945 16.9445 9.285C16.7311 9.62167 16.4328 9.88 16.0495 10.06C15.6661 10.2367 15.2211 10.325 14.7145 10.325H13.0945V13H12.1445ZM13.0895 9.545H14.6945C15.1878 9.545 15.5895 9.40667 15.8995 9.13C16.2128 8.85333 16.3695 8.47667 16.3695 8C16.3695 7.52 16.2095 7.15667 15.8895 6.91C15.5695 6.66333 15.1561 6.54 14.6495 6.54H13.0895V9.545Z" fill="white"/>
  <rect x="20" width="21" height="5" fill="#BF0B30"/>
  <rect y="21" width="41" height="5" fill="#BF0B30"/>
  <rect x="20" y="7" width="21" height="5" fill="#BF0B30"/>
  <rect x="20" y="14" width="21" height="5" fill="#BF0B30"/>
  <rect y="28" width="41" height="5" fill="#BF0B30"/>
  <rect y="35" width="41" height="5" fill="#BF0B30"/>
</svg>
