<?xml version="1.0" encoding="utf-8"?>
<!-- Generator: Adobe Illustrator 22.1.0, SVG Export Plug-In . SVG Version: 6.00 Build 0)  -->
<svg version="1.1" id="Layer_1" xmlns="http://www.w3.org/2000/svg" xmlns:xlink="http://www.w3.org/1999/xlink" x="0px" y="0px"
	 viewBox="0 0 282 282" style="enable-background:new 0 0 282 282;" xml:space="preserve">
<style type="text/css">
	.st0{clip-path:url(#SVGID_2_);}
	.st1{fill:#F03749;}
	.st2{fill:#346DBF;}
</style>
<g>
	<defs>
		<rect id="SVGID_1_" x="13.5" width="254.5" height="281.7"/>
	</defs>
	<clipPath id="SVGID_2_">
		<use xlink:href="#SVGID_1_"  style="overflow:visible;"/>
	</clipPath>
	<g class="st0">
		<path class="st1" d="M161.7,0.2c19.8,1,39.4,6.3,57,15.4C233.3,23,246.5,33,257.6,45c3.3,3.6,6.6,7.4,9.5,11.4
			c1.3,1.8,0.8,4.2-1.1,5.3c-0.5,0.3-1.1,0.6-1.6,0.9c-6.7,3.9-18.2,10.5-24.4,14c-2.3,1.3-5.3,0.8-7-1.2
			c-12.3-14.8-28.7-26-47-31.9c-10.5-3.4-21.5-5.1-32.5-5c-18.5,0.1-36.8,5.4-52.5,15c-1.6,1-3.6,1.3-5.5,0.7
			c-1.6-0.5-1.6-0.5-22.1-6.9c-2.6-0.8-5.1-1.2-7,0.6c-13.4,12.7-24,28.2-30.9,45.4c-8.4,20.9-11.2,44.1-7.8,66.3
			c2.9,19.9,10.6,39.2,22.4,55.6c2.7,0.1,5.3,1.1,7.2,3.1c3.2,3.2,4,8.4,1.7,12.3c-2,3.7-6.3,5.7-10.4,5.1c-3.9-0.5-7.3-3.4-8.4-7.2
			c-0.5-1.5-0.4-3.1-0.3-4.7c0.1-0.8-0.5-1.4-0.9-2c-15.9-22.4-24.8-49.5-25.5-76.9c-0.8-24.2,4.9-48.6,16.3-70
			c5.9-11.1,13.3-21.5,21.9-30.7c3.2-3.3,6.5-6.6,10-9.6c2.5-2.2,6.1-2.9,9.3-1.9c8.4,2.7,16.7,5.4,25.1,8.2c0.5,0.2,1-0.2,1.4-0.4
			c19.6-11.2,42.6-16.3,65.2-14.6c25.4,1.8,50,12.3,68.8,29.4c2.3,2,4.4,4.1,6.5,6.3c0.5,0.5,1.3,0.6,1.9,0.3
			c2.9-1.6,5.7-3.3,8.5-4.9c0.9-0.5,1.1-1.6,0.4-2.4c-0.8-0.9-1.7-1.8-2.6-2.7c-14.8-15.4-33.5-26.8-53.9-33.2
			c-25.4-8-53.2-7.7-78.4,0.7c-0.9,0.2-1.2,1.6-1.7,2.3c-1.4,2.5-4,4.2-6.8,4.8c-3.5,0.7-7.2-0.6-9.6-3.2c-1.6-1.8-2.7-4.3-2.6-6.8
			c-0.1-3.1,1.5-6.4,3.9-8.2c2.8-2.2,6.8-2.8,10.1-1.5c0.7,0.2,1.4,0.8,2.2,0.5C126.2,1.7,144.1-0.8,161.7,0.2z"/>
		<path class="st1" d="M77.3,65.8c3,3.4,3.4,8.6,0.9,12.3c-1.8,2.9-4.9,4.5-8.2,4.7c-10.6,15.3-16.8,33.6-17.8,52.2
			c-0.9,14.8,1.5,29.8,7,43.5c4.6,11.6,11.4,22.3,19.8,31.5c1.6,1.7,4.5,4.5,6.7,6.6c1.9,1.8,2.9,4.3,2.9,6.9c0,7.8,0,15.6,0,23.4
			c0,2.3,1.2,4.4,3.2,5.5c9.3,5.2,19.2,9.2,29.5,12c25.6,6.9,53.2,5.5,78-3.8c18.9-7.1,36-18.7,49.6-33.6c0.6-0.7,0.5-1.9-0.4-2.3
			c-2.9-1.7-5.8-3.4-8.7-5c-0.6-0.3-1.3-0.2-1.8,0.2c-0.6,0.6-1.2,1.2-1.8,1.8c-12.5,12.6-27.9,22.3-44.7,28
			c-22.8,7.8-48,8.2-71.1,1.1c-0.6-0.2-1.2-0.1-1.8,0.2c-2.1,1-4.4,1.4-6.8,0.8c-4.1-0.9-7.3-4.3-7.9-8.4c-0.6-4,1.2-8.1,4.7-10.3
			c3.2-2.1,7.5-2.1,10.8-0.1c2.1,1.3,3.5,3.2,4.5,5.4c9,2.8,18.4,4.3,27.8,4.5c15.4,0.4,30.8-2.7,44.8-9.1
			c14.6-6.6,27.6-16.7,37.6-29.2c1-1.2,2.6-1.6,4-0.8c5.5,3.1,19.2,11,28.2,16.2c1.6,0.9,2.1,3.1,1,4.5
			c-12.4,16.8-28.7,30.7-47.1,40.4c-13.4,7.1-27.9,12-42.9,14.5c-21,3.5-42.8,2.2-63.3-3.9c-11.9-3.5-23.2-8.6-33.8-15.1
			c-2.8-1.7-4.6-4.8-4.6-8.1c0-8.3,0-16.5,0-24.8c0-1.7-0.7-3.4-1.9-4.6c-0.5-0.5-1.1-1.1-1.4-1.4c-14.9-15.1-25.6-34.3-30.4-55
			c-3.4-14.5-3.9-29.7-1.5-44.4c2.7-16.6,9-32.6,18.5-46.4c0.2-0.3,0.5-0.7,0.5-1.1c-0.1-1.2-0.3-2.3-0.2-3.4
			c0.3-3.5,2.6-6.7,5.7-8.2C69.2,61.4,74.3,62.4,77.3,65.8z"/>
		<path class="st2" d="M100.8,105.9C107.2,96,116.4,88,127,83c0.9-0.4,1.7,0.6,1.3,1.4c-3,5.6-5.3,11.6-7.1,17.7
			c-0.4,1.2-0.7,2.4-1,3.6c-0.3,1.2-1.4,2-2.6,2c-5.3,0-10.5,0-15.8,0C100.9,107.8,100.3,106.7,100.8,105.9z M193.2,120.7
			c4.1,0,14.3,0,20,0c1.1,0,2.1,0.7,2.4,1.8c3.7,11.9,3.7,25.1,0,37c-0.3,1-1.3,1.8-2.4,1.8c-6.3,0-12.6,0-18.9,0
			c-1.5,0-2.6-1.3-2.5-2.8c1.2-10.4,1.3-21,0.4-31.4l-0.5-4.5C191.6,121.5,192.3,120.7,193.2,120.7z M181.7,198.7
			c-0.9,0.4-1.7-0.6-1.3-1.4c2.9-5.5,5.2-11.2,6.9-17.2c0.2-0.6,0.7-2.6,1.1-4.2c0.3-1.2,1.4-2,2.6-2.1c3.8,0,11.6,0,15.8,0
			c1,0,1.6,1.1,1,1.9C201.5,185.7,192.3,193.8,181.7,198.7z M132.1,161.1c-1.2,0-2.1-0.9-2.3-2c-1.4-12.1-1.4-24.4,0-36.4
			c0.1-1.1,1.1-2,2.2-2c7-0.1,30.3,0,41.9,0c0.9,0,1.7,0,2.6,0c1.2,0,2.2,0.9,2.3,2c1.4,12.1,1.4,24.3,0,36.4c-0.1,1.1-1.1,2-2.3,2
			C175.6,161.1,133.7,161.1,132.1,161.1z M170.7,190.1c-1.9,4-4.4,8-7.7,11c-2.2,2-4.7,3.4-7.7,3.7c-2.9,0.3-5.6-0.8-7.9-2.4
			c-3.6-2.7-6.3-6.5-8.3-10.4c-2.7-5.1-4.6-10.7-6.1-16.3c-0.2-0.9,0.4-1.7,1.3-1.7c13.4,0,26.8,0,40.2,0c0.9,0,1.6,0.8,1.3,1.7
			C174.6,180.6,172.9,185.5,170.7,190.1z M101.9,174c5.2,0,10.5,0,15.7,0c1.2,0,2.3,0.8,2.6,2c1.9,7.4,4.5,14.6,8.1,21.3
			c0.4,0.8-0.4,1.8-1.3,1.4c-10.6-5-19.8-13-26.2-22.8C100.3,175.1,100.9,174,101.9,174z M95.5,161.1c-1.1,0-2.1-0.7-2.4-1.8
			c-0.3-1.1-0.6-2.1-0.9-3.2c-2.6-10.4-2.5-21.5,0.3-31.8c0.2-0.6,0.3-1.3,0.5-2c0.3-1,1.3-1.7,2.4-1.7c6.3,0,12.7,0,19,0
			c1.5,0,2.6,1.3,2.5,2.8c-1.3,11.7-1.3,23.2,0,34.9c0.2,1.5-1,2.8-2.5,2.8C108.2,161.1,101.8,161.1,95.5,161.1z M137.7,92.3
			c1.6-3.4,3.6-6.8,6.1-9.6c2.3-2.5,4.8-4.7,8.2-5.5c3-0.7,6.1,0,8.6,1.7c3.3,2.1,5.9,5.5,7.9,8.8c3.4,5.6,5.6,12.1,7.3,18.4
			c0.2,0.9-0.4,1.7-1.3,1.7c-13.4,0-26.8,0-40.3,0c-0.9,0-1.6-0.8-1.3-1.7C134.1,101.3,135.7,96.7,137.7,92.3z M206.9,107.8
			c-5.3,0,0,0-15.8,0c-1.2,0-2.3-0.8-2.6-2c-0.3-1.2-0.6-2.4-1-3.6c-1.8-6.1-4.1-12.1-7.1-17.7c-0.4-0.8,0.4-1.8,1.3-1.4
			c10.6,5,19.8,13,26.2,22.8C208.5,106.7,207.9,107.8,206.9,107.8z M230.5,130.6c-1.6-12.3-6.3-24.2-13.6-34.3
			c-6.6-9.3-15.3-17-25.2-22.6c-15.3-8.6-33.6-11.6-50.9-8.4c-9,1.6-17.8,4.9-25.7,9.6c-9.3,5.5-17.4,13-23.6,21.8
			c-7,10-11.6,21.6-13.3,33.7c-1.6,11.9-0.5,24.2,3.4,35.5c5.5,16.2,16.7,30.4,31.1,39.6c9.5,6.1,20.3,10.1,31.5,11.6
			c11,1.5,22.4,0.5,33-2.9c11.1-3.4,21.3-9.5,29.7-17.4c9.3-8.8,16.4-20,20.4-32.2C231,153.7,232,141.9,230.5,130.6z"/>
	</g>
</g>
</svg>
