<svg width="155" height="126" viewBox="0 0 155 126" fill="none" xmlns="http://www.w3.org/2000/svg">
<g clip-path="url(#clip0)">
<path d="M98.9206 107.909C96.3131 107.909 94.2011 110.02 94.2011 112.626V114.23C94.2011 115.516 93.151 116.565 91.865 116.565H11.7751C10.4891 116.565 9.43899 115.516 9.43899 114.23V11.7697C9.43899 10.4843 10.4891 9.43467 11.7751 9.43467H91.865C93.151 9.43467 94.2011 10.4843 94.2011 11.7697V44.0835C94.2011 46.6898 96.3131 48.8008 98.9206 48.8008C101.528 48.8008 103.64 46.6898 103.64 44.0835V11.7697C103.64 5.28341 98.3543 0 91.865 0H11.7751C5.28583 0 0 5.28341 0 11.7697V114.23C0 120.717 5.28583 126 11.7751 126H91.865C98.3543 126 103.64 120.717 103.64 114.23V112.626C103.64 110.02 101.528 107.909 98.9206 107.909Z" fill="#3569A5"/>
<path d="M68.0787 77.2582L68.0079 77.3997L58.8757 98.4979C58.2858 99.866 58.4156 101.434 59.2415 102.685C60.0556 103.935 61.4478 104.678 62.9345 104.678L85.9302 104.701C86.1544 104.701 86.3668 104.689 86.5791 104.654C87.3225 104.583 88.0186 104.347 88.6321 103.946L148.617 64.6157C151.779 62.5401 153.938 59.3677 154.705 55.6763C155.472 51.985 154.752 48.2112 152.687 45.0506L149.337 39.944C146.623 35.8164 142.104 33.5638 137.491 33.5638C134.836 33.5638 132.146 34.3068 129.751 35.8753L69.7659 75.1943C68.999 75.7014 68.4091 76.409 68.0787 77.2582ZM134.6 43.258C135.78 42.4796 137.196 42.2202 138.576 42.5032C139.957 42.7862 141.148 43.6 141.927 44.7793L145.278 49.8858C146.057 51.0652 146.316 52.4804 146.033 53.8602C145.75 55.24 144.936 56.4311 143.756 57.2095L139.638 59.9102L130.482 45.9586L134.6 43.258ZM82.9923 77.093L123.084 50.8057L132.24 64.7572L131.992 64.9223L91.9004 91.2097L82.7445 77.2582L82.9923 77.093ZM84.361 95.8444L69.6598 95.8327L75.5119 82.3529L84.361 95.8444Z" fill="#FF4D4D"/>
<path d="M23.2789 53.4002H44.2571C46.8646 53.4002 48.9766 51.2892 48.9766 48.6828V22.8672C48.9766 20.2609 46.8646 18.1499 44.2571 18.1499H23.2789C20.6714 18.1499 18.5594 20.2609 18.5594 22.8672V48.6828C18.5594 51.2892 20.6714 53.4002 23.2789 53.4002ZM27.9984 27.5846H39.5376V43.9655H27.9984V27.5846Z" fill="#3569A5"/>
<path d="M45.3307 95.5496H23.2789C20.6714 95.5496 18.5594 97.6606 18.5594 100.267C18.5594 102.873 20.6714 104.984 23.2789 104.984H45.3307C47.9383 104.984 50.0502 102.873 50.0502 100.267C50.0502 97.6606 47.9383 95.5496 45.3307 95.5496Z" fill="#3569A5"/>
<path d="M45.3307 78.8148H23.2789C20.6714 78.8148 18.5594 80.9258 18.5594 83.5322C18.5594 86.1385 20.6714 88.2495 23.2789 88.2495H45.3307C47.9383 88.2495 50.0502 86.1385 50.0502 83.5322C50.0502 80.9258 47.9383 78.8148 45.3307 78.8148Z" fill="#3569A5"/>
<path d="M80.0662 25.1906L68.3501 37.2434C68.2911 37.3023 68.2321 37.3141 68.1849 37.3141C68.1377 37.3023 68.0669 37.3023 68.0079 37.2316L64.3031 33.1393C63.43 32.1722 62.1793 31.6061 60.8815 31.5708C59.5836 31.5472 58.3211 32.0307 57.389 32.9742C55.5956 34.7668 55.5838 37.7151 57.3654 39.6846L63.2294 46.1827C64.4683 47.5625 66.2499 48.3527 68.1141 48.3527C69.9429 48.3527 71.7009 47.5861 72.928 46.2653L86.9567 31.7948C88.7737 29.8961 88.7029 26.877 86.8033 25.0608C85.883 24.1763 84.6677 23.74 83.4053 23.74C82.1192 23.7518 80.9393 24.2707 80.0662 25.1906Z" fill="#3569A5"/>
<path d="M45.3307 62.1155H23.2789C20.6714 62.1155 18.5594 64.2265 18.5594 66.8328C18.5594 69.4391 20.6714 71.5501 23.2789 71.5501H45.3307C47.9383 71.5501 50.0502 69.4391 50.0502 66.8328C50.0502 64.2265 47.9383 62.1155 45.3307 62.1155Z" fill="#3569A5"/>
</g>
<defs>
<clipPath id="clip0">
<rect width="155" height="126" fill="white"/>
</clipPath>
</defs>
</svg>
