<svg width="155" height="136" viewBox="0 0 155 136" fill="none" xmlns="http://www.w3.org/2000/svg">
<g clip-path="url(#clip0)">
<path d="M52.0988 111.376C45.8641 111.376 40.8019 116.417 40.8019 122.627V124.76C40.8019 130.97 45.8641 136.011 52.0988 136.011H102.958C109.192 136.011 114.254 130.97 114.254 124.76V122.627C114.254 116.417 109.192 111.376 102.958 111.376H52.0988ZM102.958 119.236C104.829 119.236 106.362 120.752 106.362 122.627V124.76C106.362 126.624 104.84 128.151 102.958 128.151H52.0988C50.2273 128.151 48.694 126.635 48.694 124.76V122.627C48.694 120.763 50.216 119.236 52.0988 119.236H102.958Z" fill="#3569A5"/>
<path d="M154.459 58.9268L132.846 21.8277C132.136 20.6151 130.839 19.874 129.43 19.874H91.5591C90.7023 19.874 90.1386 19.0318 90.4204 18.2234C90.9841 16.6514 91.2547 14.9559 91.1984 13.1818C90.939 6.07411 85.0087 0.212819 77.8721 0.010705C70.104 -0.225094 63.7114 6.00674 63.7114 13.6983C63.7114 15.2815 63.9933 16.8086 64.4894 18.2234C64.7712 19.0206 64.2188 19.874 63.3619 19.874H25.559C24.1497 19.874 22.8531 20.6151 22.1429 21.8277L0.529895 58.9268C0.0676462 59.724 0 61.835 0 62.0259C0 77.6673 10.5077 88.6038 25.559 88.6038C40.6103 88.6038 51.118 77.6785 51.118 62.0259C51.118 61.835 51.0391 59.6904 50.5543 58.8819L32.628 29.0477C32.2785 28.4638 32.6957 27.7227 33.3834 27.7227H121.617C122.293 27.7227 122.721 28.4638 122.372 29.0477L104.446 58.8819C103.961 59.6904 103.882 61.8238 103.882 62.0259C103.882 77.6673 114.39 88.6038 129.441 88.6038C144.492 88.6038 155 77.6785 155 62.0259C155 61.835 154.932 59.724 154.459 58.9268ZM42.7299 67.0114C40.9823 75.5001 34.6236 80.7439 25.559 80.7439C16.4944 80.7439 10.1357 75.4889 8.37685 67.0114C8.26411 66.4612 8.70381 65.9559 9.25626 65.9559H41.8392C42.4029 65.9559 42.8426 66.4612 42.7299 67.0114ZM40.0691 56.7485C40.4299 57.3436 40.0015 58.0959 39.3024 58.0959H11.6915C11.0038 58.0959 10.5754 57.3548 10.9136 56.7597L23.9806 34.3363C24.5556 33.337 25.9987 33.337 26.585 34.3139L40.0691 56.7485ZM77.4662 19.5371C74.2304 19.5371 71.6035 16.9209 71.6035 13.6983C71.6035 10.4757 74.2304 7.85945 77.4662 7.85945C80.7019 7.85945 83.3289 10.4757 83.3289 13.6983C83.3289 16.9209 80.7019 19.5371 77.4662 19.5371ZM114.931 56.7485L128.404 34.3139C129.001 33.3258 130.433 33.337 131.008 34.3363L144.075 56.7597C144.425 57.3548 143.996 58.0959 143.297 58.0959H115.686C114.999 58.0959 114.57 57.3436 114.931 56.7485ZM129.441 80.7439C120.376 80.7439 114.018 75.5001 112.27 67.0114C112.157 66.4612 112.597 65.9559 113.15 65.9559H145.732C146.296 65.9559 146.725 66.4612 146.612 67.0114C144.864 75.4889 138.506 80.7439 129.441 80.7439Z" fill="#3569A5"/>
<path d="M82.596 64.8111C82.4043 64.7999 82.2578 64.6202 82.2578 64.4069V52.7292C82.2578 52.5046 82.4381 52.325 82.6636 52.325H91.6719C94.3439 52.325 96.5424 50.3375 96.6777 47.8111C96.7453 46.4861 96.2831 45.2285 95.3698 44.2741C94.4566 43.3197 93.2164 42.7919 91.8973 42.7919H82.6636C82.4381 42.7919 82.2578 42.6123 82.2578 42.3877V35.9088C82.2578 33.2814 80.1044 31.1367 77.4661 31.1367C74.8279 31.1367 72.6745 33.2814 72.6745 35.9088V42.4888C72.6745 42.6909 72.528 42.8705 72.3363 42.893C63.734 43.6902 57.2512 50.3824 57.2512 58.4782C57.2512 66.4729 63.8805 73.3111 72.3363 74.0634C72.528 74.0746 72.6745 74.2543 72.6745 74.4676V86.1565C72.6745 86.3811 72.4942 86.5608 72.2687 86.5608H63.3957C60.7237 86.5608 58.5252 88.5482 58.3899 91.0746C58.3223 92.3996 58.7845 93.6572 59.6977 94.6116C60.611 95.566 61.8511 96.0938 63.1702 96.0938H72.2687C72.4942 96.0938 72.6745 96.2734 72.6745 96.498V103.639C72.6745 106.267 74.8279 108.411 77.4661 108.411C80.1044 108.411 82.2578 106.267 82.2578 103.639V96.4194C82.2578 96.2173 82.4156 96.0377 82.596 96.0152C91.1307 95.2966 97.8164 88.4359 97.8164 80.4188C97.8164 72.3567 91.1307 65.5073 82.596 64.8111ZM88.2332 80.4188C88.2332 83.3157 85.8317 85.8309 82.5171 86.4148C82.4381 86.426 82.3818 86.3923 82.348 86.3699C82.3141 86.3474 82.2578 86.2801 82.2578 86.1902V74.6585C82.2578 74.5575 82.3141 74.5013 82.348 74.4789C82.3818 74.4564 82.4269 74.4227 82.4832 74.4227C82.4945 74.4227 82.5058 74.4227 82.5171 74.4227C85.8317 75.0066 88.2332 77.533 88.2332 80.4188ZM72.6745 52.718V64.1935C72.6745 64.2946 72.6069 64.3619 72.5843 64.3844C72.5505 64.4181 72.4942 64.4406 72.4152 64.4293C69.1795 63.8005 66.8344 61.2966 66.8344 58.4557C66.8344 55.6262 69.1795 53.111 72.4152 52.4822C72.4265 52.4822 72.4378 52.4822 72.4491 52.4822C72.5054 52.4822 72.5505 52.5046 72.5843 52.5271C72.6069 52.5608 72.6745 52.6169 72.6745 52.718Z" fill="#FF4D4D"/>
</g>
<defs>
<clipPath id="clip0">
<rect width="155" height="136" fill="white"/>
</clipPath>
</defs>
</svg>
