<svg width="56" height="50" viewBox="0 0 56 50" fill="none" xmlns="http://www.w3.org/2000/svg">
  <path d="M18.6667 48.4375C18.6667 49.2969 19.3667 50 20.2222 50H23.3333C24.1889 50 24.8889 49.2969 24.8889 48.4375V31.25H18.6667V48.4375ZM21.7778 21.875H16.8292L12.4347 17.4512C11.2583 16.2695 9.69306 15.625 8.04028 15.625H6.22222C4.55972 15.625 2.99444 16.2793 1.81806 17.4609C0.651389 18.6426 0 20.2148 0 21.8848L0.0194444 31.25L0 46.875C0 48.6035 1.39028 50 3.10139 50C4.8125 50 6.2125 48.6035 6.2125 46.875L6.22222 37.041C6.30972 37.0898 6.37778 37.168 6.46528 37.207L9.29444 41.4062V46.875C9.29444 48.6035 10.6847 50 12.4056 50C14.1264 50 15.5167 48.6035 15.5167 46.875V41.3574C15.5167 40.3906 15.2931 39.4238 14.8653 38.5645L10.8597 32.5781V24.707L12.8917 26.748C13.7764 27.6367 14.9431 28.125 16.1875 28.125H21.7778C23.4986 28.125 24.8889 26.7285 24.8889 25C24.8889 23.2715 23.4986 21.875 21.7778 21.875ZM6.22222 12.5C8.79861 12.5 10.8889 10.4004 10.8889 7.8125C10.8889 5.22461 8.79861 3.125 6.22222 3.125C3.64583 3.125 1.55556 5.22461 1.55556 7.8125C1.55556 10.4004 3.64583 12.5 6.22222 12.5ZM28 3.125L31.0625 24.9121L28.0583 40.0098C27.6403 42.1191 29.3222 43.75 31.1111 43.75C32.5889 43.75 33.8333 42.8613 34.2514 40.7813C34.3389 42.4316 35.6708 43.75 37.3333 43.75C39.0542 43.75 40.4444 42.3535 40.4444 40.625C40.4444 42.3535 41.8347 43.75 43.5556 43.75C45.2764 43.75 46.6667 42.3535 46.6667 40.625V0H28V3.125ZM18.6667 3.125V18.75H24.8889V0H21.7778C20.0569 0 18.6667 1.39648 18.6667 3.125ZM52.8889 0H49.7778V48.4375C49.7778 49.2969 50.4778 50 51.3333 50H54.4444C55.3 50 56 49.2969 56 48.4375V3.125C56 1.39648 54.6097 0 52.8889 0Z" fill="black"/>
</svg>
