<svg width="44" height="50" viewBox="0 0 44 50" fill="none" xmlns="http://www.w3.org/2000/svg">
  <path d="M12.7305 17.1875H16.5697C16.7161 14.5479 17.2121 12.1729 17.9654 10.3115C15.2438 11.6045 13.2491 14.1387 12.7305 17.1875ZM12.7305 20.3125C13.2501 23.3613 15.2438 25.8955 17.9654 27.1885C17.2111 25.3271 16.7161 22.9521 16.5697 20.3125H12.7305ZM22 27.9971C22.7553 27.2695 24.0399 24.6357 24.3012 20.3125H19.6979C19.9601 24.6348 21.2447 27.2695 22 27.9971ZM19.6988 17.1875H24.3021C24.0409 12.8652 22.7562 10.2305 22.001 9.50293C21.2447 10.2305 19.9601 12.8652 19.6988 17.1875ZM26.0346 27.1885C28.7562 25.8955 30.7509 23.3613 31.2695 20.3125H27.4303C27.2839 22.9521 26.7889 25.3271 26.0346 27.1885ZM40.8571 0H6.28571C2.81384 0 0 2.79785 0 6.25V43.75C0 47.2021 2.81384 50 6.28571 50H40.8571C42.5926 50 44 48.6006 44 46.875V3.125C44 1.39941 42.5926 0 40.8571 0ZM33 40.625H11C10.1357 40.625 9.42857 39.9219 9.42857 39.0625C9.42857 38.2031 10.1357 37.5 11 37.5H33C33.8643 37.5 34.5714 38.2031 34.5714 39.0625C34.5714 39.9219 33.8643 40.625 33 40.625ZM22 31.25C15.0572 31.25 9.42857 25.6533 9.42857 18.75C9.42857 11.8467 15.0572 6.25 22 6.25C28.9428 6.25 34.5714 11.8467 34.5714 18.75C34.5714 25.6533 28.9428 31.25 22 31.25ZM26.0346 10.3115C26.7889 12.1729 27.2839 14.5479 27.4303 17.1875H31.2695C30.7509 14.1387 28.7562 11.6045 26.0346 10.3115Z" fill="black"/>
</svg>
