<svg width="28" height="50" viewBox="0 0 28 50" fill="none" xmlns="http://www.w3.org/2000/svg">
  <path d="M20.3386 22.793L9.83863 19.707C8.62336 19.3555 7.77752 18.2129 7.77752 16.9434C7.77752 15.3516 9.06086 14.0625 10.6456 14.0625H17.0914C18.2775 14.0625 19.4442 14.4238 20.4164 15.0879C21.0095 15.4883 21.8067 15.3906 22.3122 14.8926L25.6956 11.5723C26.3859 10.8984 26.2886 9.77539 25.5206 9.17969C23.1386 7.30469 20.1636 6.25977 17.1109 6.25V1.5625C17.1109 0.703125 16.4109 0 15.5553 0H12.4442C11.5886 0 10.8886 0.703125 10.8886 1.5625V6.25H10.6456C4.45252 6.25 -0.525255 11.5918 0.0483565 17.9297C0.45669 22.4316 3.87891 26.0938 8.19558 27.3633L18.1609 30.293C19.3761 30.6543 20.222 31.7871 20.222 33.0566C20.222 34.6484 18.9386 35.9375 17.3539 35.9375H10.9081C9.72197 35.9375 8.5553 35.5762 7.58308 34.9121C6.99002 34.5117 6.1928 34.6094 5.68725 35.1074L2.30391 38.4277C1.61363 39.1016 1.71086 40.2246 2.47891 40.8203C4.86086 42.6953 7.83586 43.7402 10.8886 43.75V48.4375C10.8886 49.2969 11.5886 50 12.4442 50H15.5553C16.4109 50 17.1109 49.2969 17.1109 48.4375V43.7305C21.6414 43.6426 25.89 40.9375 27.3872 36.6309C29.4775 30.6152 25.9678 24.4434 20.3386 22.793V22.793Z" fill="black"/>
</svg>
