<svg width="13" height="24" viewBox="0 0 13 24" fill="none" xmlns="http://www.w3.org/2000/svg">
<path fill-rule="evenodd" clip-rule="evenodd" d="M12.3556 0.177778V4H10.1333C9.33333 4 8.8 4.17778 8.44444 4.53333C8.17778 4.88889 8 5.42222 8 6.04444V8.8H12.1778L11.6444 13.0667H8V24H3.64444V13.0667H0V8.8H3.64444V5.68889C3.64444 3.91111 4.17778 2.48889 5.15556 1.51111C6.13333 0.533333 7.46667 0 9.15556 0C10.4889 0 11.5556 0.0888889 12.3556 0.177778V0.177778Z" fill="#345D96"/>
<mask id="mask0" mask-type="alpha" maskUnits="userSpaceOnUse" x="0" y="0" width="13" height="24">
<path fill-rule="evenodd" clip-rule="evenodd" d="M12.3556 0.177778V4H10.1333C9.33333 4 8.8 4.17778 8.44444 4.53333C8.17778 4.88889 8 5.42222 8 6.04444V8.8H12.1778L11.6444 13.0667H8V24H3.64444V13.0667H0V8.8H3.64444V5.68889C3.64444 3.91111 4.17778 2.48889 5.15556 1.51111C6.13333 0.533333 7.46667 0 9.15556 0C10.4889 0 11.5556 0.0888889 12.3556 0.177778V0.177778Z" fill="white"/>
</mask>
<g mask="url(#mask0)">
</g>
</svg>
