<svg width="20" height="20" viewBox="0 0 20 20" fill="none" xmlns="http://www.w3.org/2000/svg">
<path fill-rule="evenodd" clip-rule="evenodd" d="M20 19.0265C20 19.292 19.9123 19.469 19.7368 19.7345C19.5614 19.9115 19.386 20 19.1228 20H17.1053C16.8421 20 16.6667 19.9115 16.4912 19.7345C16.3158 19.5575 16.2281 19.3805 16.2281 19.115C16.1403 17.0796 15.614 15.1327 14.8246 13.2743C13.9474 11.4159 12.8947 9.82301 11.5789 8.49558C10.2632 7.16814 8.68421 6.0177 6.84211 5.22124C5 4.33628 3.07018 3.89381 1.05263 3.80531C0.789474 3.80531 0.614035 3.71681 0.438597 3.53982C0.263158 3.36283 0.175439 3.18584 0.175439 2.92035V0.884956C0.175439 0.619469 0.263158 0.353982 0.438597 0.265487C0.614035 0.0884956 0.789474 0 1.05263 0H1.14035C3.59649 0.0884956 5.96491 0.707965 8.24561 1.68142C10.5263 2.74336 12.5439 4.0708 14.2982 5.9292C16.0526 7.69911 17.4561 9.73451 18.5088 12.0354C19.2982 14.0708 19.9123 16.4602 20 19.0265V19.0265ZM12.807 18.9381C12.807 19.2035 12.7193 19.469 12.5439 19.646C12.3684 19.823 12.193 19.9115 11.8421 19.9115H9.91228C9.64912 19.9115 9.47368 19.823 9.29825 19.646C9.12281 19.469 9.03509 19.292 9.03509 19.0266C8.85965 16.8142 7.98246 14.9558 6.40351 13.4513C4.82456 11.8584 2.98246 11.062 0.877193 10.7965C0.614035 10.7965 0.438596 10.708 0.263158 10.531C0.0877193 10.354 0 10.177 0 9.91151V7.96461C0 7.69912 0.0877193 7.43363 0.263158 7.25664C0.438596 7.07965 0.614035 6.99115 0.877193 6.99115H0.964912C2.45614 7.07965 3.94737 7.52213 5.26316 8.1416C6.66667 8.76107 7.89474 9.64602 8.94737 10.708C10 11.7699 10.8772 13.0089 11.4912 14.4248C12.1053 15.8407 12.6316 17.4336 12.807 18.9381V18.9381ZM4.73684 15.2212C5.26316 15.7522 5.52632 16.3717 5.52632 17.1681C5.52632 17.9646 5.26316 18.5841 4.73684 19.115C4.21053 19.646 3.59649 19.9115 2.80702 19.9115C2.01754 19.9115 1.40351 19.646 0.877193 19.115C0.350877 18.5841 0.0877192 17.9646 0.0877192 17.1681C0.0877192 16.3717 0.350877 15.7522 0.877193 15.2212C1.40351 14.6903 2.01754 14.4248 2.80702 14.4248C3.59649 14.4248 4.21053 14.6903 4.73684 15.2212V15.2212Z" fill="black"/>
<mask id="mask0" mask-type="alpha" maskUnits="userSpaceOnUse" x="0" y="0" width="20" height="20">
<path fill-rule="evenodd" clip-rule="evenodd" d="M20 19.0265C20 19.292 19.9123 19.469 19.7368 19.7345C19.5614 19.9115 19.386 20 19.1228 20H17.1053C16.8421 20 16.6667 19.9115 16.4912 19.7345C16.3158 19.5575 16.2281 19.3805 16.2281 19.115C16.1403 17.0796 15.614 15.1327 14.8246 13.2743C13.9474 11.4159 12.8947 9.82301 11.5789 8.49558C10.2632 7.16814 8.68421 6.0177 6.84211 5.22124C5 4.33628 3.07018 3.89381 1.05263 3.80531C0.789474 3.80531 0.614035 3.71681 0.438597 3.53982C0.263158 3.36283 0.175439 3.18584 0.175439 2.92035V0.884956C0.175439 0.619469 0.263158 0.353982 0.438597 0.265487C0.614035 0.0884956 0.789474 0 1.05263 0H1.14035C3.59649 0.0884956 5.96491 0.707965 8.24561 1.68142C10.5263 2.74336 12.5439 4.0708 14.2982 5.9292C16.0526 7.69911 17.4561 9.73451 18.5088 12.0354C19.2982 14.0708 19.9123 16.4602 20 19.0265V19.0265ZM12.807 18.9381C12.807 19.2035 12.7193 19.469 12.5439 19.646C12.3684 19.823 12.193 19.9115 11.8421 19.9115H9.91228C9.64912 19.9115 9.47368 19.823 9.29825 19.646C9.12281 19.469 9.03509 19.292 9.03509 19.0266C8.85965 16.8142 7.98246 14.9558 6.40351 13.4513C4.82456 11.8584 2.98246 11.062 0.877193 10.7965C0.614035 10.7965 0.438596 10.708 0.263158 10.531C0.0877193 10.354 0 10.177 0 9.91151V7.96461C0 7.69912 0.0877193 7.43363 0.263158 7.25664C0.438596 7.07965 0.614035 6.99115 0.877193 6.99115H0.964912C2.45614 7.07965 3.94737 7.52213 5.26316 8.1416C6.66667 8.76107 7.89474 9.64602 8.94737 10.708C10 11.7699 10.8772 13.0089 11.4912 14.4248C12.1053 15.8407 12.6316 17.4336 12.807 18.9381V18.9381ZM4.73684 15.2212C5.26316 15.7522 5.52632 16.3717 5.52632 17.1681C5.52632 17.9646 5.26316 18.5841 4.73684 19.115C4.21053 19.646 3.59649 19.9115 2.80702 19.9115C2.01754 19.9115 1.40351 19.646 0.877193 19.115C0.350877 18.5841 0.0877192 17.9646 0.0877192 17.1681C0.0877192 16.3717 0.350877 15.7522 0.877193 15.2212C1.40351 14.6903 2.01754 14.4248 2.80702 14.4248C3.59649 14.4248 4.21053 14.6903 4.73684 15.2212V15.2212Z" fill="white"/>
</mask>
<g mask="url(#mask0)">
</g>
</svg>
