<svg width="24" height="20" viewBox="0 0 24 20" fill="none" xmlns="http://www.w3.org/2000/svg">
<path fill-rule="evenodd" clip-rule="evenodd" d="M23.8095 2.05415C23.1559 3.08123 22.3156 3.92157 21.3819 4.57516C21.3819 4.7619 21.3819 4.94865 21.3819 5.22876C21.3819 6.53595 21.1951 7.84314 20.8217 9.15033C20.4482 10.4575 19.888 11.6713 19.0476 12.8852C18.3007 14.099 17.3669 15.126 16.2465 16.0598C15.126 16.9935 13.9122 17.7404 12.3249 18.3007C10.831 18.8609 9.15033 19.141 7.46965 19.141C4.7619 19.141 2.2409 18.394 0 16.9935C0.373483 16.9935 0.746965 17.0868 1.21382 17.0868C3.45472 17.0868 5.50887 16.4332 7.28291 15.0327C6.25584 15.0327 5.32213 14.6592 4.48179 14.099C3.64146 13.4454 3.08123 12.6984 2.80112 11.6713C3.1746 11.7647 3.45472 11.7647 3.73483 11.7647C4.20168 11.7647 4.57516 11.6713 5.04202 11.578C3.92157 11.3912 2.98786 10.831 2.2409 9.89729C1.49393 8.96358 1.12045 7.93651 1.12045 6.81606V6.72269C1.77404 7.09617 2.52101 7.28291 3.36134 7.37628C2.70775 6.90943 2.14753 6.34921 1.77404 5.60224C1.40056 4.85528 1.21382 4.10831 1.21382 3.26797C1.21382 2.42764 1.40056 1.5873 1.86741 0.840336C3.08123 2.33427 4.57516 3.54809 6.34921 4.48179C8.12325 5.4155 9.99066 5.88235 11.9514 5.97572C11.8581 5.60224 11.8581 5.22876 11.8581 4.85528C11.8581 3.54809 12.3249 2.33427 13.2586 1.40056C14.1923 0.466853 15.3128 0 16.7134 0C18.1139 0 19.3277 0.560224 20.2614 1.49393C21.3819 1.30719 22.409 0.933707 23.3427 0.280112C22.9692 1.40056 22.2222 2.33427 21.1951 2.98786C21.9421 2.70775 22.8758 2.42764 23.8095 2.05415V2.05415Z" fill="#2491FF"/>
<mask id="mask0" mask-type="alpha" maskUnits="userSpaceOnUse" x="0" y="0" width="24" height="20">
<path fill-rule="evenodd" clip-rule="evenodd" d="M23.8095 2.05415C23.1559 3.08123 22.3156 3.92157 21.3819 4.57516C21.3819 4.7619 21.3819 4.94865 21.3819 5.22876C21.3819 6.53595 21.1951 7.84314 20.8217 9.15033C20.4482 10.4575 19.888 11.6713 19.0476 12.8852C18.3007 14.099 17.3669 15.126 16.2465 16.0598C15.126 16.9935 13.9122 17.7404 12.3249 18.3007C10.831 18.8609 9.15033 19.141 7.46965 19.141C4.7619 19.141 2.2409 18.394 0 16.9935C0.373483 16.9935 0.746965 17.0868 1.21382 17.0868C3.45472 17.0868 5.50887 16.4332 7.28291 15.0327C6.25584 15.0327 5.32213 14.6592 4.48179 14.099C3.64146 13.4454 3.08123 12.6984 2.80112 11.6713C3.1746 11.7647 3.45472 11.7647 3.73483 11.7647C4.20168 11.7647 4.57516 11.6713 5.04202 11.578C3.92157 11.3912 2.98786 10.831 2.2409 9.89729C1.49393 8.96358 1.12045 7.93651 1.12045 6.81606V6.72269C1.77404 7.09617 2.52101 7.28291 3.36134 7.37628C2.70775 6.90943 2.14753 6.34921 1.77404 5.60224C1.40056 4.85528 1.21382 4.10831 1.21382 3.26797C1.21382 2.42764 1.40056 1.5873 1.86741 0.840336C3.08123 2.33427 4.57516 3.54809 6.34921 4.48179C8.12325 5.4155 9.99066 5.88235 11.9514 5.97572C11.8581 5.60224 11.8581 5.22876 11.8581 4.85528C11.8581 3.54809 12.3249 2.33427 13.2586 1.40056C14.1923 0.466853 15.3128 0 16.7134 0C18.1139 0 19.3277 0.560224 20.2614 1.49393C21.3819 1.30719 22.409 0.933707 23.3427 0.280112C22.9692 1.40056 22.2222 2.33427 21.1951 2.98786C21.9421 2.70775 22.8758 2.42764 23.8095 2.05415V2.05415Z" fill="white"/>
</mask>
<g mask="url(#mask0)">
</g>
</svg>
