<svg width="21" height="24" viewBox="0 0 21 24" fill="none" xmlns="http://www.w3.org/2000/svg">
<path fill-rule="evenodd" clip-rule="evenodd" d="M20.16 17.1073C20.16 19.1834 20.0756 20.7612 19.8226 21.8408C19.6539 22.3391 19.4008 22.8374 19.0634 23.1696C18.6417 23.5017 18.2199 23.7509 17.7138 23.7509C16.0268 23.917 13.4962 24 10.1222 24C6.74812 24 4.21757 23.917 2.53054 23.7509C2.02444 23.6678 1.51833 23.5017 1.09657 23.1696C0.674812 22.8374 0.421757 22.3391 0.337406 21.8408C0.0843515 20.8443 0 19.2664 0 17.1073C0 15.0311 0.0843515 13.4533 0.337406 12.3737C0.506109 11.8754 0.759163 11.3772 1.09657 11.045C1.51833 10.7128 1.94008 10.4637 2.53054 10.3806C4.21757 10.2145 6.74812 10.1315 10.1222 10.1315C13.4962 10.1315 16.0268 10.2145 17.7138 10.3806C18.2199 10.4637 18.726 10.6298 19.1478 11.045C19.5695 11.3772 19.8226 11.8754 19.9069 12.3737C19.9913 13.4533 20.16 15.0311 20.16 17.1073V17.1073ZM4.21757 13.7855H5.65155V12.5398H1.43397V13.7855H2.86795V21.4256H4.21757V13.7855V13.7855ZM6.57941 0H8.01339L6.32636 5.31488V8.96886H4.97674V5.31488C4.89238 4.65052 4.55498 3.73702 4.13322 2.49135C3.79582 1.57785 3.54276 0.747405 3.20536 0H4.63933L5.5672 3.48789L6.57941 0V0ZM8.18209 21.4256H9.36301V14.782H8.18209V19.8478C7.92904 20.263 7.67598 20.4291 7.42293 20.4291C7.25423 20.4291 7.16987 20.346 7.16987 20.1799C7.16987 20.1799 7.16987 20.0138 7.16987 19.6817V14.782H5.98895V20.0138C5.98895 20.4291 5.98895 20.7612 6.07331 21.0104C6.15766 21.3426 6.41071 21.5087 6.83247 21.5087C7.25423 21.5087 7.76034 21.2595 8.18209 20.6782V21.4256V21.4256ZM11.5562 4.48443V6.80969C11.5562 7.55709 11.3874 8.05536 11.1344 8.38754C10.797 8.80277 10.2909 9.0519 9.70042 9.0519C9.10996 9.0519 8.60385 8.80277 8.26644 8.38754C8.01339 8.05536 7.84469 7.55709 7.84469 6.80969V4.48443C7.84469 3.73702 8.01339 3.23875 8.26644 2.90657C8.60385 2.4083 9.10996 2.24221 9.70042 2.24221C10.2909 2.24221 10.797 2.49135 11.1344 2.90657C11.4718 3.23875 11.5562 3.73702 11.5562 4.48443V4.48443ZM10.3752 7.05882V4.23529C10.3752 3.65398 10.2065 3.3218 9.78477 3.3218C9.36301 3.3218 9.19431 3.65398 9.19431 4.23529V7.05882C9.19431 7.72318 9.36301 7.97232 9.78477 7.97232C10.1222 7.97232 10.3752 7.72318 10.3752 7.05882V7.05882ZM14.0023 19.4325V16.7751C14.0023 16.1107 14.0023 15.6955 13.918 15.4464C13.7493 14.9481 13.4119 14.699 12.9901 14.699C12.5684 14.699 12.1466 14.9481 11.7249 15.4464V12.5398H10.5439V21.4256H11.7249V20.7612C12.1466 21.2595 12.5684 21.5086 12.9901 21.5086C13.4962 21.5086 13.8336 21.2595 13.918 20.7612C14.0023 20.5121 14.0023 20.0969 14.0023 19.4325V19.4325ZM12.8214 16.692V19.5156C12.8214 20.0969 12.6527 20.4291 12.3153 20.4291C12.1466 20.4291 11.8936 20.346 11.7249 20.0969V16.0277C11.8936 15.8616 12.1466 15.6955 12.3153 15.6955C12.6527 15.7785 12.8214 16.1107 12.8214 16.692V16.692ZM16.1111 2.32526V9.0519H14.8459V8.3045C14.3397 8.88581 13.918 9.13495 13.4119 9.13495C12.9901 9.13495 12.7371 8.96886 12.5684 8.63668C12.484 8.38754 12.484 8.05536 12.484 7.64014V2.32526H13.7493V7.22491C13.7493 7.55709 13.7493 7.64014 13.7493 7.72318C13.7493 7.88927 13.8336 8.05536 14.0023 8.05536C14.2554 8.05536 14.5085 7.88927 14.7615 7.47405V2.32526H16.1111V2.32526ZM18.6417 19.3495V19.1834H17.3764C17.3764 19.5986 17.3764 19.9308 17.3764 20.0138C17.2921 20.346 17.1233 20.5121 16.8703 20.5121C16.4485 20.5121 16.2798 20.1799 16.2798 19.5986V18.436H18.726V17.0242C18.726 16.3599 18.6417 15.7785 18.3886 15.4464C18.0512 14.9481 17.5451 14.782 16.9546 14.782C16.3642 14.782 15.8581 15.0311 15.5207 15.4464C15.2676 15.7785 15.0989 16.2768 15.0989 17.0242V19.3495C15.0989 20.0969 15.2676 20.5952 15.5207 20.9273C15.8581 21.3426 16.3642 21.5917 16.9546 21.5917C17.6295 21.5917 18.1356 21.3426 18.3886 20.8443C18.5573 20.5952 18.6417 20.346 18.6417 20.0969C18.6417 20.0138 18.6417 19.7647 18.6417 19.3495V19.3495ZM17.4608 16.692V17.2734H16.1955V16.692C16.1955 16.1107 16.3642 15.7785 16.7859 15.7785C17.2077 15.7785 17.4608 16.1107 17.4608 16.692V16.692Z" fill="#D83933"/>
<mask id="mask0" mask-type="alpha" maskUnits="userSpaceOnUse" x="0" y="0" width="21" height="24">
<path fill-rule="evenodd" clip-rule="evenodd" d="M20.16 17.1073C20.16 19.1834 20.0756 20.7612 19.8226 21.8408C19.6539 22.3391 19.4008 22.8374 19.0634 23.1696C18.6417 23.5017 18.2199 23.7509 17.7138 23.7509C16.0268 23.917 13.4962 24 10.1222 24C6.74812 24 4.21757 23.917 2.53054 23.7509C2.02444 23.6678 1.51833 23.5017 1.09657 23.1696C0.674812 22.8374 0.421757 22.3391 0.337406 21.8408C0.0843515 20.8443 0 19.2664 0 17.1073C0 15.0311 0.0843515 13.4533 0.337406 12.3737C0.506109 11.8754 0.759163 11.3772 1.09657 11.045C1.51833 10.7128 1.94008 10.4637 2.53054 10.3806C4.21757 10.2145 6.74812 10.1315 10.1222 10.1315C13.4962 10.1315 16.0268 10.2145 17.7138 10.3806C18.2199 10.4637 18.726 10.6298 19.1478 11.045C19.5695 11.3772 19.8226 11.8754 19.9069 12.3737C19.9913 13.4533 20.16 15.0311 20.16 17.1073V17.1073ZM4.21757 13.7855H5.65155V12.5398H1.43397V13.7855H2.86795V21.4256H4.21757V13.7855V13.7855ZM6.57941 0H8.01339L6.32636 5.31488V8.96886H4.97674V5.31488C4.89238 4.65052 4.55498 3.73702 4.13322 2.49135C3.79582 1.57785 3.54276 0.747405 3.20536 0H4.63933L5.5672 3.48789L6.57941 0V0ZM8.18209 21.4256H9.36301V14.782H8.18209V19.8478C7.92904 20.263 7.67598 20.4291 7.42293 20.4291C7.25423 20.4291 7.16987 20.346 7.16987 20.1799C7.16987 20.1799 7.16987 20.0138 7.16987 19.6817V14.782H5.98895V20.0138C5.98895 20.4291 5.98895 20.7612 6.07331 21.0104C6.15766 21.3426 6.41071 21.5087 6.83247 21.5087C7.25423 21.5087 7.76034 21.2595 8.18209 20.6782V21.4256V21.4256ZM11.5562 4.48443V6.80969C11.5562 7.55709 11.3874 8.05536 11.1344 8.38754C10.797 8.80277 10.2909 9.0519 9.70042 9.0519C9.10996 9.0519 8.60385 8.80277 8.26644 8.38754C8.01339 8.05536 7.84469 7.55709 7.84469 6.80969V4.48443C7.84469 3.73702 8.01339 3.23875 8.26644 2.90657C8.60385 2.4083 9.10996 2.24221 9.70042 2.24221C10.2909 2.24221 10.797 2.49135 11.1344 2.90657C11.4718 3.23875 11.5562 3.73702 11.5562 4.48443V4.48443ZM10.3752 7.05882V4.23529C10.3752 3.65398 10.2065 3.3218 9.78477 3.3218C9.36301 3.3218 9.19431 3.65398 9.19431 4.23529V7.05882C9.19431 7.72318 9.36301 7.97232 9.78477 7.97232C10.1222 7.97232 10.3752 7.72318 10.3752 7.05882V7.05882ZM14.0023 19.4325V16.7751C14.0023 16.1107 14.0023 15.6955 13.918 15.4464C13.7493 14.9481 13.4119 14.699 12.9901 14.699C12.5684 14.699 12.1466 14.9481 11.7249 15.4464V12.5398H10.5439V21.4256H11.7249V20.7612C12.1466 21.2595 12.5684 21.5086 12.9901 21.5086C13.4962 21.5086 13.8336 21.2595 13.918 20.7612C14.0023 20.5121 14.0023 20.0969 14.0023 19.4325V19.4325ZM12.8214 16.692V19.5156C12.8214 20.0969 12.6527 20.4291 12.3153 20.4291C12.1466 20.4291 11.8936 20.346 11.7249 20.0969V16.0277C11.8936 15.8616 12.1466 15.6955 12.3153 15.6955C12.6527 15.7785 12.8214 16.1107 12.8214 16.692V16.692ZM16.1111 2.32526V9.0519H14.8459V8.3045C14.3397 8.88581 13.918 9.13495 13.4119 9.13495C12.9901 9.13495 12.7371 8.96886 12.5684 8.63668C12.484 8.38754 12.484 8.05536 12.484 7.64014V2.32526H13.7493V7.22491C13.7493 7.55709 13.7493 7.64014 13.7493 7.72318C13.7493 7.88927 13.8336 8.05536 14.0023 8.05536C14.2554 8.05536 14.5085 7.88927 14.7615 7.47405V2.32526H16.1111V2.32526ZM18.6417 19.3495V19.1834H17.3764C17.3764 19.5986 17.3764 19.9308 17.3764 20.0138C17.2921 20.346 17.1233 20.5121 16.8703 20.5121C16.4485 20.5121 16.2798 20.1799 16.2798 19.5986V18.436H18.726V17.0242C18.726 16.3599 18.6417 15.7785 18.3886 15.4464C18.0512 14.9481 17.5451 14.782 16.9546 14.782C16.3642 14.782 15.8581 15.0311 15.5207 15.4464C15.2676 15.7785 15.0989 16.2768 15.0989 17.0242V19.3495C15.0989 20.0969 15.2676 20.5952 15.5207 20.9273C15.8581 21.3426 16.3642 21.5917 16.9546 21.5917C17.6295 21.5917 18.1356 21.3426 18.3886 20.8443C18.5573 20.5952 18.6417 20.346 18.6417 20.0969C18.6417 20.0138 18.6417 19.7647 18.6417 19.3495V19.3495ZM17.4608 16.692V17.2734H16.1955V16.692C16.1955 16.1107 16.3642 15.7785 16.7859 15.7785C17.2077 15.7785 17.4608 16.1107 17.4608 16.692V16.692Z" fill="white"/>
</mask>
<g mask="url(#mask0)">
</g>
</svg>
